<svg xmlns="http://www.w3.org/2000/svg" xmlns:xlink="http://www.w3.org/1999/xlink" width="810" viewBox="0 0 810 810" height="810" version="1.0"><defs><clipPath id="a"><path d="M 220 457 L 590 457 L 590 634 L 220 634 Z M 220 457"/></clipPath><clipPath id="b"><path d="M 405 457.824219 C 400.097656 457.839844 395.207031 458.039062 390.320312 458.421875 C 385.433594 458.804688 380.570312 459.371094 375.730469 460.125 C 370.886719 460.875 366.078125 461.808594 361.304688 462.921875 C 356.535156 464.035156 351.8125 465.328125 347.136719 466.800781 C 342.460938 468.269531 337.847656 469.914062 333.300781 471.734375 C 328.75 473.554688 324.273438 475.542969 319.875 477.703125 C 315.472656 479.859375 311.160156 482.179688 306.9375 484.664062 C 302.710938 487.148438 298.585938 489.785156 294.5625 492.582031 C 290.539062 495.375 286.625 498.320312 282.820312 501.410156 C 279.015625 504.5 275.335938 507.730469 271.777344 511.101562 C 268.21875 514.46875 264.792969 517.96875 261.5 521.597656 C 258.203125 525.222656 255.050781 528.972656 252.039062 532.835938 C 249.027344 536.703125 246.167969 540.679688 243.457031 544.761719 C 240.746094 548.84375 238.191406 553.023438 235.796875 557.296875 C 233.402344 561.570312 231.171875 565.933594 229.105469 570.375 C 227.039062 574.820312 225.144531 579.335938 223.417969 583.921875 C 222.882812 585.324219 222.433594 586.757812 222.070312 588.214844 C 221.707031 589.671875 221.4375 591.148438 221.253906 592.640625 C 221.074219 594.132812 220.984375 595.628906 220.984375 597.132812 C 220.988281 598.632812 221.078125 600.128906 221.265625 601.621094 C 221.449219 603.113281 221.726562 604.585938 222.089844 606.046875 C 222.457031 607.503906 222.910156 608.933594 223.449219 610.335938 C 223.992188 611.738281 224.617188 613.101562 225.324219 614.425781 C 226.03125 615.75 226.816406 617.03125 227.679688 618.257812 C 228.507812 619.46875 229.410156 620.625 230.378906 621.726562 C 231.347656 622.824219 232.382812 623.863281 233.480469 624.835938 C 234.574219 625.8125 235.726562 626.714844 236.933594 627.546875 C 238.140625 628.382812 239.394531 629.136719 240.695312 629.816406 C 241.996094 630.496094 243.332031 631.097656 244.707031 631.613281 C 246.078125 632.128906 247.476562 632.558594 248.902344 632.902344 C 250.332031 633.25 251.773438 633.507812 253.230469 633.675781 C 254.6875 633.84375 256.148438 633.921875 257.613281 633.914062 L 552.382812 633.914062 C 553.851562 633.921875 555.3125 633.84375 556.769531 633.675781 C 558.226562 633.507812 559.667969 633.25 561.09375 632.902344 C 562.523438 632.558594 563.921875 632.128906 565.292969 631.613281 C 566.667969 631.097656 568.003906 630.496094 569.304688 629.816406 C 570.605469 629.136719 571.859375 628.382812 573.066406 627.546875 C 574.273438 626.714844 575.425781 625.8125 576.519531 624.835938 C 577.617188 623.863281 578.652344 622.824219 579.621094 621.726562 C 580.589844 620.625 581.492188 619.46875 582.320312 618.257812 C 583.183594 617.03125 583.96875 615.75 584.675781 614.425781 C 585.382812 613.101562 586.007812 611.738281 586.550781 610.335938 C 587.089844 608.933594 587.542969 607.503906 587.910156 606.046875 C 588.273438 604.585938 588.550781 603.113281 588.734375 601.621094 C 588.917969 600.132812 589.011719 598.632812 589.015625 597.132812 C 589.015625 595.628906 588.925781 594.132812 588.746094 592.640625 C 588.5625 591.148438 588.292969 589.671875 587.929688 588.214844 C 587.566406 586.757812 587.117188 585.324219 586.582031 583.921875 C 584.855469 579.335938 582.960938 574.820312 580.894531 570.375 C 578.828125 565.933594 576.597656 561.570312 574.203125 557.296875 C 571.808594 553.023438 569.253906 548.84375 566.542969 544.761719 C 563.832031 540.679688 560.972656 536.703125 557.960938 532.835938 C 554.949219 528.972656 551.796875 525.222656 548.5 521.597656 C 545.207031 517.96875 541.78125 514.46875 538.222656 511.101562 C 534.664062 507.730469 530.980469 504.5 527.179688 501.410156 C 523.375 498.320312 519.460938 495.375 515.4375 492.582031 C 511.414062 489.785156 507.289062 487.148438 503.0625 484.664062 C 498.839844 482.179688 494.527344 479.859375 490.125 477.703125 C 485.726562 475.542969 481.25 473.554688 476.699219 471.734375 C 472.152344 469.914062 467.539062 468.269531 462.863281 466.800781 C 458.1875 465.328125 453.464844 464.035156 448.695312 462.921875 C 443.921875 461.808594 439.113281 460.875 434.269531 460.125 C 429.429688 459.371094 424.566406 458.804688 419.679688 458.421875 C 414.792969 458.039062 409.902344 457.839844 405 457.824219 Z M 405 457.824219"/></clipPath><clipPath id="d"><path d="M 299 140 L 511 140 L 511 353 L 299 353 Z M 299 140"/></clipPath><clipPath id="e"><path d="M 510.652344 246.523438 C 510.652344 248.25 510.609375 249.980469 510.523438 251.707031 C 510.441406 253.433594 510.3125 255.15625 510.144531 256.878906 C 509.972656 258.597656 509.761719 260.3125 509.507812 262.023438 C 509.253906 263.734375 508.960938 265.4375 508.621094 267.132812 C 508.285156 268.828125 507.90625 270.515625 507.484375 272.191406 C 507.066406 273.871094 506.605469 275.535156 506.101562 277.191406 C 505.601562 278.84375 505.058594 280.488281 504.476562 282.113281 C 503.894531 283.742188 503.269531 285.355469 502.609375 286.953125 C 501.949219 288.550781 501.246094 290.128906 500.507812 291.695312 C 499.769531 293.257812 498.992188 294.800781 498.175781 296.324219 C 497.363281 297.851562 496.507812 299.355469 495.621094 300.835938 C 494.730469 302.320312 493.808594 303.78125 492.847656 305.21875 C 491.886719 306.65625 490.890625 308.070312 489.859375 309.457031 C 488.832031 310.847656 487.765625 312.210938 486.671875 313.546875 C 485.574219 314.882812 484.445312 316.191406 483.28125 317.472656 C 482.121094 318.753906 480.929688 320.007812 479.707031 321.230469 C 478.484375 322.453125 477.234375 323.644531 475.953125 324.804688 C 474.671875 325.964844 473.363281 327.09375 472.023438 328.191406 C 470.6875 329.289062 469.324219 330.351562 467.9375 331.382812 C 466.546875 332.414062 465.136719 333.40625 463.695312 334.367188 C 462.257812 335.328125 460.800781 336.253906 459.316406 337.140625 C 457.832031 338.03125 456.328125 338.882812 454.804688 339.699219 C 453.277344 340.511719 451.734375 341.289062 450.171875 342.03125 C 448.609375 342.769531 447.027344 343.46875 445.429688 344.132812 C 443.832031 344.792969 442.222656 345.414062 440.59375 345.996094 C 438.964844 346.582031 437.324219 347.121094 435.667969 347.625 C 434.015625 348.125 432.347656 348.585938 430.671875 349.007812 C 428.992188 349.425781 427.308594 349.804688 425.613281 350.144531 C 423.914062 350.480469 422.210938 350.777344 420.503906 351.03125 C 418.792969 351.285156 417.078125 351.496094 415.355469 351.664062 C 413.636719 351.835938 411.910156 351.960938 410.183594 352.046875 C 408.457031 352.132812 406.730469 352.175781 405 352.175781 C 403.269531 352.175781 401.542969 352.132812 399.816406 352.046875 C 398.089844 351.960938 396.363281 351.835938 394.644531 351.664062 C 392.921875 351.496094 391.207031 351.285156 389.496094 351.03125 C 387.785156 350.777344 386.085938 350.480469 384.386719 350.144531 C 382.691406 349.804688 381.003906 349.425781 379.328125 349.007812 C 377.652344 348.585938 375.984375 348.125 374.332031 347.625 C 372.675781 347.121094 371.035156 346.582031 369.40625 345.996094 C 367.777344 345.414062 366.164062 344.792969 364.570312 344.132812 C 362.972656 343.46875 361.390625 342.769531 359.828125 342.03125 C 358.265625 341.289062 356.722656 340.511719 355.195312 339.699219 C 353.671875 338.882812 352.167969 338.03125 350.683594 337.140625 C 349.199219 336.253906 347.742188 335.328125 346.300781 334.367188 C 344.863281 333.40625 343.453125 332.414062 342.0625 331.382812 C 340.675781 330.351562 339.3125 329.289062 337.976562 328.191406 C 336.636719 327.09375 335.328125 325.964844 334.046875 324.804688 C 332.765625 323.644531 331.515625 322.453125 330.292969 321.230469 C 329.070312 320.007812 327.878906 318.753906 326.71875 317.472656 C 325.554688 316.191406 324.425781 314.882812 323.328125 313.546875 C 322.234375 312.210938 321.167969 310.847656 320.140625 309.457031 C 319.109375 308.070312 318.113281 306.65625 317.152344 305.21875 C 316.191406 303.78125 315.269531 302.320312 314.378906 300.835938 C 313.488281 299.355469 312.636719 297.851562 311.824219 296.324219 C 311.007812 294.800781 310.230469 293.257812 309.492188 291.695312 C 308.753906 290.128906 308.050781 288.550781 307.390625 286.953125 C 306.726562 285.355469 306.105469 283.742188 305.523438 282.113281 C 304.941406 280.488281 304.398438 278.84375 303.898438 277.191406 C 303.394531 275.535156 302.933594 273.871094 302.515625 272.191406 C 302.09375 270.515625 301.714844 268.828125 301.378906 267.132812 C 301.039062 265.4375 300.746094 263.734375 300.492188 262.023438 C 300.238281 260.3125 300.027344 258.597656 299.855469 256.878906 C 299.6875 255.15625 299.558594 253.433594 299.476562 251.707031 C 299.390625 249.980469 299.347656 248.25 299.347656 246.523438 C 299.347656 244.792969 299.390625 243.066406 299.476562 241.335938 C 299.558594 239.609375 299.6875 237.886719 299.855469 236.167969 C 300.027344 234.445312 300.238281 232.730469 300.492188 231.019531 C 300.746094 229.308594 301.039062 227.605469 301.378906 225.910156 C 301.714844 224.214844 302.09375 222.527344 302.515625 220.851562 C 302.933594 219.171875 303.394531 217.507812 303.898438 215.851562 C 304.398438 214.199219 304.941406 212.554688 305.523438 210.929688 C 306.105469 209.300781 306.726562 207.6875 307.390625 206.089844 C 308.050781 204.492188 308.753906 202.914062 309.492188 201.347656 C 310.230469 199.785156 311.007812 198.242188 311.824219 196.71875 C 312.636719 195.191406 313.488281 193.6875 314.378906 192.207031 C 315.269531 190.722656 316.191406 189.261719 317.152344 187.824219 C 318.113281 186.386719 319.109375 184.972656 320.140625 183.585938 C 321.167969 182.195312 322.234375 180.832031 323.328125 179.496094 C 324.425781 178.160156 325.554688 176.851562 326.714844 175.570312 C 327.878906 174.289062 329.070312 173.035156 330.292969 171.8125 C 331.515625 170.589844 332.765625 169.398438 334.046875 168.238281 C 335.328125 167.078125 336.636719 165.949219 337.976562 164.851562 C 339.3125 163.753906 340.675781 162.691406 342.0625 161.660156 C 343.453125 160.632812 344.863281 159.636719 346.300781 158.675781 C 347.742188 157.714844 349.199219 156.789062 350.683594 155.902344 C 352.167969 155.011719 353.671875 154.160156 355.195312 153.34375 C 356.722656 152.53125 358.265625 151.753906 359.828125 151.011719 C 361.390625 150.273438 362.972656 149.574219 364.570312 148.910156 C 366.164062 148.25 367.777344 147.628906 369.40625 147.046875 C 371.035156 146.464844 372.675781 145.921875 374.332031 145.417969 C 375.984375 144.917969 377.652344 144.457031 379.328125 144.035156 C 381.003906 143.617188 382.691406 143.238281 384.386719 142.898438 C 386.085938 142.5625 387.789062 142.265625 389.496094 142.011719 C 391.207031 141.757812 392.921875 141.546875 394.644531 141.378906 C 396.363281 141.207031 398.089844 141.082031 399.816406 140.996094 C 401.542969 140.910156 403.269531 140.871094 405 140.871094 C 406.730469 140.871094 408.457031 140.910156 410.183594 140.996094 C 411.910156 141.082031 413.636719 141.207031 415.355469 141.378906 C 417.078125 141.546875 418.792969 141.757812 420.503906 142.011719 C 422.210938 142.265625 423.914062 142.5625 425.613281 142.898438 C 427.308594 143.238281 428.992188 143.617188 430.671875 144.035156 C 432.347656 144.457031 434.015625 144.917969 435.667969 145.417969 C 437.324219 145.921875 438.964844 146.464844 440.59375 147.046875 C 442.222656 147.628906 443.832031 148.25 445.429688 148.910156 C 447.027344 149.574219 448.609375 150.273438 450.171875 151.011719 C 451.734375 151.753906 453.277344 152.53125 454.804688 153.34375 C 456.328125 154.160156 457.832031 155.011719 459.316406 155.902344 C 460.800781 156.789062 462.257812 157.714844 463.695312 158.675781 C 465.136719 159.636719 466.546875 160.632812 467.9375 161.660156 C 469.324219 162.691406 470.6875 163.753906 472.023438 164.851562 C 473.363281 165.949219 474.671875 167.078125 475.953125 168.238281 C 477.234375 169.398438 478.484375 170.589844 479.707031 171.8125 C 480.929688 173.035156 482.121094 174.289062 483.28125 175.570312 C 484.445312 176.851562 485.574219 178.160156 486.671875 179.496094 C 487.765625 180.832031 488.832031 182.195312 489.859375 183.585938 C 490.890625 184.972656 491.886719 186.386719 492.847656 187.824219 C 493.808594 189.261719 494.730469 190.722656 495.621094 192.207031 C 496.507812 193.6875 497.363281 195.191406 498.175781 196.71875 C 498.992188 198.242188 499.769531 199.785156 500.507812 201.347656 C 501.246094 202.914062 501.949219 204.492188 502.609375 206.089844 C 503.269531 207.6875 503.894531 209.300781 504.476562 210.929688 C 505.058594 212.554688 505.601562 214.199219 506.101562 215.851562 C 506.605469 217.507812 507.066406 219.171875 507.484375 220.851562 C 507.90625 222.527344 508.285156 224.214844 508.621094 225.910156 C 508.960938 227.605469 509.253906 229.308594 509.507812 231.019531 C 509.761719 232.730469 509.972656 234.445312 510.144531 236.167969 C 510.3125 237.886719 510.441406 239.609375 510.523438 241.335938 C 510.609375 243.066406 510.652344 244.792969 510.652344 246.523438 Z M 510.652344 246.523438"/></clipPath><clipPath id="g"><path d="M 405 0 C 398.371094 0 391.746094 0.164062 385.128906 0.488281 C 378.507812 0.8125 371.898438 1.300781 365.304688 1.949219 C 358.707031 2.601562 352.128906 3.410156 345.574219 4.382812 C 339.019531 5.355469 332.488281 6.488281 325.988281 7.78125 C 319.488281 9.074219 313.023438 10.527344 306.59375 12.136719 C 300.164062 13.746094 293.777344 15.515625 287.433594 17.4375 C 281.09375 19.363281 274.800781 21.441406 268.558594 23.675781 C 262.320312 25.90625 256.136719 28.292969 250.011719 30.828125 C 243.890625 33.367188 237.832031 36.050781 231.839844 38.882812 C 225.847656 41.71875 219.929688 44.699219 214.085938 47.820312 C 208.238281 50.945312 202.472656 54.210938 196.789062 57.621094 C 191.101562 61.027344 185.503906 64.574219 179.992188 68.253906 C 174.484375 71.9375 169.066406 75.753906 163.742188 79.699219 C 158.417969 83.648438 153.195312 87.726562 148.070312 91.929688 C 142.945312 96.136719 137.929688 100.464844 133.019531 104.914062 C 128.109375 109.367188 123.308594 113.933594 118.621094 118.621094 C 113.933594 123.308594 109.367188 128.109375 104.914062 133.019531 C 100.464844 137.929688 96.136719 142.945312 91.929688 148.070312 C 87.726562 153.195312 83.648438 158.417969 79.699219 163.742188 C 75.753906 169.066406 71.9375 174.484375 68.253906 179.992188 C 64.574219 185.503906 61.027344 191.101562 57.621094 196.789062 C 54.210938 202.472656 50.945312 208.238281 47.820312 214.085938 C 44.699219 219.929688 41.71875 225.847656 38.882812 231.839844 C 36.050781 237.832031 33.367188 243.890625 30.828125 250.011719 C 28.292969 256.136719 25.90625 262.320312 23.675781 268.558594 C 21.441406 274.800781 19.363281 281.09375 17.4375 287.433594 C 15.515625 293.777344 13.746094 300.164062 12.136719 306.59375 C 10.527344 313.023438 9.074219 319.488281 7.78125 325.988281 C 6.488281 332.488281 5.355469 339.019531 4.382812 345.574219 C 3.410156 352.128906 2.601562 358.707031 1.949219 365.304688 C 1.300781 371.898438 0.8125 378.507812 0.488281 385.128906 C 0.164062 391.746094 0 398.371094 0 405 C 0 411.628906 0.164062 418.253906 0.488281 424.871094 C 0.8125 431.492188 1.300781 438.101562 1.949219 444.695312 C 2.601562 451.292969 3.410156 457.871094 4.382812 464.425781 C 5.355469 470.980469 6.488281 477.511719 7.78125 484.011719 C 9.074219 490.511719 10.527344 496.976562 12.136719 503.40625 C 13.746094 509.835938 15.515625 516.222656 17.4375 522.566406 C 19.363281 528.90625 21.441406 535.199219 23.675781 541.441406 C 25.90625 547.679688 28.292969 553.863281 30.828125 559.988281 C 33.367188 566.109375 36.050781 572.167969 38.882812 578.160156 C 41.71875 584.152344 44.699219 590.070312 47.820312 595.914062 C 50.945312 601.761719 54.210938 607.527344 57.621094 613.210938 C 61.027344 618.898438 64.574219 624.496094 68.253906 630.003906 C 71.9375 635.515625 75.753906 640.933594 79.699219 646.257812 C 83.648438 651.582031 87.726562 656.804688 91.929688 661.929688 C 96.136719 667.054688 100.464844 672.070312 104.914062 676.980469 C 109.367188 681.890625 113.933594 686.691406 118.621094 691.378906 C 123.308594 696.066406 128.109375 700.632812 133.019531 705.085938 C 137.929688 709.535156 142.945312 713.863281 148.070312 718.070312 C 153.195312 722.273438 158.417969 726.351562 163.742188 730.300781 C 169.066406 734.246094 174.484375 738.0625 179.992188 741.746094 C 185.503906 745.425781 191.101562 748.972656 196.789062 752.378906 C 202.472656 755.789062 208.238281 759.054688 214.085938 762.179688 C 219.929688 765.300781 225.847656 768.28125 231.839844 771.117188 C 237.832031 773.949219 243.890625 776.632812 250.011719 779.171875 C 256.136719 781.707031 262.320312 784.09375 268.558594 786.324219 C 274.800781 788.558594 281.09375 790.636719 287.433594 792.5625 C 293.777344 794.484375 300.164062 796.25 306.59375 797.863281 C 313.023438 799.472656 319.488281 800.925781 325.988281 802.21875 C 332.488281 803.511719 339.019531 804.644531 345.574219 805.617188 C 352.128906 806.589844 358.707031 807.398438 365.304688 808.050781 C 371.898438 808.699219 378.507812 809.1875 385.128906 809.511719 C 391.746094 809.835938 398.371094 810 405 810 C 411.628906 810 418.253906 809.835938 424.871094 809.511719 C 431.492188 809.1875 438.101562 808.699219 444.695312 808.050781 C 451.292969 807.398438 457.871094 806.589844 464.425781 805.617188 C 470.980469 804.644531 477.511719 803.511719 484.011719 802.21875 C 490.511719 800.925781 496.976562 799.472656 503.40625 797.863281 C 509.835938 796.253906 516.222656 794.484375 522.566406 792.5625 C 528.90625 790.636719 535.199219 788.558594 541.441406 786.324219 C 547.679688 784.09375 553.863281 781.707031 559.988281 779.171875 C 566.109375 776.632812 572.167969 773.949219 578.160156 771.117188 C 584.152344 768.28125 590.070312 765.300781 595.914062 762.179688 C 601.761719 759.054688 607.527344 755.789062 613.210938 752.378906 C 618.898438 748.972656 624.496094 745.425781 630.003906 741.746094 C 635.515625 738.0625 640.933594 734.246094 646.257812 730.300781 C 651.582031 726.351562 656.804688 722.273438 661.929688 718.070312 C 667.054688 713.863281 672.070312 709.535156 676.980469 705.085938 C 681.890625 700.632812 686.691406 696.066406 691.378906 691.378906 C 696.066406 686.691406 700.632812 681.890625 705.085938 676.980469 C 709.535156 672.070312 713.863281 667.054688 718.070312 661.929688 C 722.273438 656.804688 726.351562 651.582031 730.300781 646.257812 C 734.246094 640.933594 738.0625 635.515625 741.746094 630.003906 C 745.425781 624.496094 748.972656 618.898438 752.378906 613.210938 C 755.789062 607.527344 759.054688 601.761719 762.179688 595.914062 C 765.300781 590.070312 768.28125 584.152344 771.117188 578.160156 C 773.949219 572.167969 776.632812 566.109375 779.171875 559.988281 C 781.707031 553.863281 784.09375 547.679688 786.324219 541.441406 C 788.558594 535.199219 790.636719 528.90625 792.5625 522.566406 C 794.484375 516.222656 796.25 509.835938 797.863281 503.40625 C 799.472656 496.976562 800.925781 490.511719 802.21875 484.011719 C 803.511719 477.511719 804.644531 470.980469 805.617188 464.425781 C 806.589844 457.871094 807.398438 451.292969 808.050781 444.695312 C 808.699219 438.101562 809.1875 431.492188 809.511719 424.871094 C 809.835938 418.253906 810 411.628906 810 405 C 809.992188 398.375 809.824219 391.753906 809.492188 385.132812 C 809.160156 378.515625 808.664062 371.910156 808.007812 365.316406 C 807.351562 358.722656 806.535156 352.148438 805.558594 345.597656 C 804.578125 339.042969 803.441406 332.519531 802.140625 326.019531 C 800.84375 319.523438 799.386719 313.058594 797.773438 306.632812 C 796.15625 300.207031 794.386719 293.824219 792.457031 287.484375 C 790.53125 281.144531 788.449219 274.859375 786.210938 268.621094 C 783.976562 262.382812 781.589844 256.203125 779.046875 250.085938 C 776.507812 243.964844 773.820312 237.910156 770.984375 231.921875 C 768.148438 225.933594 765.167969 220.015625 762.042969 214.175781 C 758.917969 208.332031 755.648438 202.570312 752.242188 196.886719 C 748.832031 191.207031 745.289062 185.609375 741.605469 180.101562 C 737.921875 174.59375 734.105469 169.179688 730.15625 163.859375 C 726.210938 158.535156 722.132812 153.316406 717.929688 148.195312 C 713.726562 143.070312 709.398438 138.058594 704.949219 133.148438 C 700.496094 128.238281 695.929688 123.441406 691.246094 118.753906 C 686.558594 114.070312 681.761719 109.503906 676.851562 105.050781 C 671.941406 100.601562 666.929688 96.273438 661.804688 92.070312 C 656.683594 87.867188 651.464844 83.789062 646.140625 79.84375 C 640.820312 75.894531 635.40625 72.078125 629.898438 68.394531 C 624.390625 64.710938 618.792969 61.167969 613.113281 57.757812 C 607.429688 54.351562 601.667969 51.082031 595.824219 47.957031 C 589.984375 44.832031 584.066406 41.851562 578.078125 39.015625 C 572.089844 36.175781 566.035156 33.488281 559.914062 30.949219 C 553.796875 28.410156 547.617188 26.023438 541.378906 23.789062 C 535.140625 21.550781 528.855469 19.46875 522.515625 17.542969 C 516.175781 15.613281 509.792969 13.84375 503.367188 12.226562 C 496.9375 10.613281 490.476562 9.15625 483.980469 7.859375 C 477.480469 6.558594 470.957031 5.421875 464.402344 4.441406 C 457.851562 3.464844 451.277344 2.648438 444.683594 1.992188 C 438.089844 1.335938 431.484375 0.839844 424.867188 0.507812 C 418.246094 0.175781 411.625 0.0078125 405 0 Z M 405 105.652344 C 407.304688 105.652344 409.609375 105.707031 411.910156 105.820312 C 414.214844 105.933594 416.511719 106.105469 418.808594 106.332031 C 421.101562 106.554688 423.390625 106.839844 425.667969 107.175781 C 427.949219 107.515625 430.222656 107.910156 432.480469 108.359375 C 434.742188 108.808594 436.992188 109.3125 439.226562 109.875 C 441.464844 110.433594 443.6875 111.046875 445.890625 111.71875 C 448.097656 112.386719 450.285156 113.109375 452.457031 113.886719 C 454.628906 114.664062 456.777344 115.492188 458.910156 116.375 C 461.039062 117.257812 463.144531 118.191406 465.230469 119.175781 C 467.3125 120.164062 469.371094 121.199219 471.40625 122.285156 C 473.4375 123.371094 475.445312 124.507812 477.421875 125.695312 C 479.398438 126.878906 481.347656 128.113281 483.261719 129.394531 C 485.179688 130.671875 487.0625 132 488.914062 133.375 C 490.765625 134.746094 492.585938 136.164062 494.367188 137.628906 C 496.148438 139.089844 497.894531 140.597656 499.601562 142.144531 C 501.308594 143.691406 502.980469 145.28125 504.609375 146.910156 C 506.238281 148.542969 507.828125 150.210938 509.378906 151.917969 C 510.925781 153.628906 512.429688 155.371094 513.894531 157.15625 C 515.355469 158.9375 516.773438 160.753906 518.148438 162.605469 C 519.519531 164.457031 520.847656 166.34375 522.128906 168.257812 C 523.410156 170.175781 524.640625 172.121094 525.828125 174.101562 C 527.011719 176.078125 528.148438 178.082031 529.234375 180.117188 C 530.324219 182.148438 531.359375 184.207031 532.34375 186.292969 C 533.332031 188.375 534.265625 190.484375 535.144531 192.613281 C 536.027344 194.742188 536.859375 196.894531 537.636719 199.0625 C 538.410156 201.234375 539.132812 203.421875 539.804688 205.628906 C 540.472656 207.835938 541.085938 210.058594 541.648438 212.292969 C 542.207031 214.53125 542.714844 216.777344 543.164062 219.039062 C 543.613281 221.300781 544.007812 223.570312 544.34375 225.851562 C 544.683594 228.132812 544.964844 230.417969 545.191406 232.714844 C 545.417969 235.007812 545.585938 237.308594 545.699219 239.609375 C 545.8125 241.914062 545.871094 244.214844 545.871094 246.523438 C 545.871094 248.828125 545.8125 251.132812 545.699219 253.433594 C 545.585938 255.738281 545.417969 258.035156 545.191406 260.328125 C 544.964844 262.625 544.683594 264.910156 544.34375 267.191406 C 544.007812 269.472656 543.613281 271.742188 543.164062 274.003906 C 542.714844 276.265625 542.207031 278.515625 541.648438 280.75 C 541.085938 282.988281 540.472656 285.207031 539.804688 287.414062 C 539.132812 289.621094 538.410156 291.808594 537.636719 293.980469 C 536.859375 296.148438 536.027344 298.300781 535.144531 300.429688 C 534.265625 302.558594 533.332031 304.667969 532.34375 306.75 C 531.359375 308.835938 530.324219 310.894531 529.234375 312.925781 C 528.148438 314.960938 527.011719 316.964844 525.828125 318.941406 C 524.640625 320.921875 523.410156 322.867188 522.128906 324.785156 C 520.847656 326.703125 519.519531 328.585938 518.148438 330.4375 C 516.773438 332.289062 515.355469 334.105469 513.894531 335.886719 C 512.429688 337.671875 510.925781 339.414062 509.378906 341.125 C 507.828125 342.832031 506.238281 344.5 504.609375 346.132812 C 502.980469 347.761719 501.308594 349.351562 499.601562 350.898438 C 497.894531 352.449219 496.148438 353.953125 494.367188 355.414062 C 492.585938 356.878906 490.765625 358.296875 488.914062 359.667969 C 487.0625 361.042969 485.179688 362.371094 483.261719 363.648438 C 481.347656 364.929688 479.398438 366.164062 477.421875 367.347656 C 475.445312 368.535156 473.4375 369.671875 471.40625 370.757812 C 469.371094 371.84375 467.3125 372.878906 465.230469 373.867188 C 463.144531 374.851562 461.039062 375.785156 458.910156 376.667969 C 456.777344 377.550781 454.628906 378.378906 452.457031 379.15625 C 450.285156 379.933594 448.097656 380.65625 445.890625 381.324219 C 443.6875 381.996094 441.464844 382.609375 439.226562 383.167969 C 436.992188 383.730469 434.742188 384.234375 432.480469 384.683594 C 430.222656 385.132812 427.949219 385.527344 425.667969 385.867188 C 423.390625 386.203125 421.101562 386.488281 418.808594 386.714844 C 416.511719 386.9375 414.214844 387.109375 411.910156 387.222656 C 409.609375 387.335938 407.304688 387.390625 405 387.390625 C 402.695312 387.390625 400.390625 387.335938 398.085938 387.222656 C 395.785156 387.109375 393.488281 386.9375 391.191406 386.714844 C 388.898438 386.488281 386.609375 386.203125 384.332031 385.867188 C 382.050781 385.527344 379.777344 385.132812 377.519531 384.683594 C 375.257812 384.234375 373.007812 383.730469 370.769531 383.167969 C 368.535156 382.609375 366.3125 381.996094 364.109375 381.324219 C 361.902344 380.65625 359.714844 379.933594 357.542969 379.15625 C 355.371094 378.378906 353.222656 377.550781 351.089844 376.667969 C 348.960938 375.785156 346.855469 374.851562 344.769531 373.867188 C 342.6875 372.878906 340.628906 371.84375 338.59375 370.757812 C 336.5625 369.671875 334.554688 368.535156 332.578125 367.347656 C 330.601562 366.164062 328.652344 364.929688 326.738281 363.652344 C 324.820312 362.371094 322.9375 361.042969 321.085938 359.667969 C 319.230469 358.296875 317.414062 356.878906 315.632812 355.414062 C 313.851562 353.953125 312.105469 352.449219 310.398438 350.898438 C 308.691406 349.351562 307.019531 347.761719 305.390625 346.132812 C 303.761719 344.5 302.171875 342.832031 300.621094 341.125 C 299.074219 339.414062 297.570312 337.671875 296.105469 335.886719 C 294.644531 334.105469 293.226562 332.289062 291.851562 330.4375 C 290.480469 328.585938 289.152344 326.703125 287.871094 324.785156 C 286.589844 322.867188 285.355469 320.921875 284.171875 318.941406 C 282.988281 316.964844 281.851562 314.960938 280.765625 312.925781 C 279.675781 310.894531 278.640625 308.835938 277.65625 306.75 C 276.667969 304.667969 275.734375 302.558594 274.851562 300.429688 C 273.972656 298.300781 273.140625 296.148438 272.363281 293.980469 C 271.589844 291.808594 270.867188 289.621094 270.195312 287.414062 C 269.527344 285.207031 268.914062 282.988281 268.351562 280.75 C 267.792969 278.515625 267.285156 276.265625 266.835938 274.003906 C 266.386719 271.742188 265.992188 269.472656 265.65625 267.191406 C 265.316406 264.910156 265.035156 262.625 264.808594 260.328125 C 264.582031 258.035156 264.414062 255.738281 264.300781 253.433594 C 264.1875 251.132812 264.128906 248.828125 264.128906 246.523438 C 264.132812 244.21875 264.191406 241.914062 264.308594 239.613281 C 264.421875 237.308594 264.59375 235.011719 264.824219 232.71875 C 265.050781 230.425781 265.335938 228.140625 265.675781 225.859375 C 266.015625 223.582031 266.410156 221.308594 266.863281 219.050781 C 267.316406 216.789062 267.820312 214.542969 268.382812 212.308594 C 268.945312 210.070312 269.5625 207.851562 270.230469 205.648438 C 270.902344 203.441406 271.625 201.253906 272.402344 199.085938 C 273.183594 196.914062 274.011719 194.765625 274.894531 192.636719 C 275.777344 190.507812 276.714844 188.402344 277.699219 186.320312 C 278.6875 184.238281 279.722656 182.179688 280.8125 180.148438 C 281.898438 178.117188 283.035156 176.109375 284.21875 174.136719 C 285.40625 172.160156 286.640625 170.210938 287.917969 168.296875 C 289.199219 166.378906 290.527344 164.496094 291.902344 162.644531 C 293.273438 160.796875 294.691406 158.980469 296.15625 157.199219 C 297.617188 155.417969 299.121094 153.671875 300.671875 151.964844 C 302.21875 150.257812 303.808594 148.589844 305.4375 146.957031 C 307.066406 145.328125 308.734375 143.738281 310.441406 142.191406 C 312.148438 140.644531 313.894531 139.140625 315.675781 137.675781 C 317.457031 136.214844 319.273438 134.796875 321.125 133.421875 C 322.976562 132.050781 324.859375 130.722656 326.773438 129.441406 C 328.691406 128.160156 330.636719 126.925781 332.613281 125.742188 C 334.589844 124.554688 336.59375 123.417969 338.625 122.332031 C 340.65625 121.246094 342.714844 120.207031 344.796875 119.222656 C 346.882812 118.234375 348.988281 117.300781 351.117188 116.417969 C 353.246094 115.535156 355.394531 114.703125 357.5625 113.925781 C 359.734375 113.148438 361.921875 112.425781 364.125 111.753906 C 366.332031 111.082031 368.550781 110.464844 370.785156 109.90625 C 373.019531 109.34375 375.269531 108.835938 377.527344 108.386719 C 379.789062 107.933594 382.058594 107.539062 384.339844 107.199219 C 386.617188 106.855469 388.902344 106.574219 391.195312 106.34375 C 393.492188 106.117188 395.789062 105.945312 398.089844 105.828125 C 400.390625 105.714844 402.695312 105.65625 405 105.652344 Z M 611.25 638.351562 C 609.621094 640.730469 607.851562 643.003906 605.945312 645.164062 C 604.035156 647.328125 602.003906 649.371094 599.847656 651.285156 C 597.691406 653.199219 595.425781 654.976562 593.050781 656.613281 C 590.675781 658.253906 588.210938 659.738281 585.652344 661.078125 C 583.097656 662.414062 580.46875 663.589844 577.769531 664.605469 C 575.070312 665.621094 572.316406 666.464844 569.511719 667.144531 C 566.710938 667.824219 563.875 668.328125 561.011719 668.660156 C 558.144531 668.992188 555.269531 669.148438 552.382812 669.128906 L 257.613281 669.128906 C 254.730469 669.148438 251.855469 668.992188 248.988281 668.660156 C 246.125 668.328125 243.289062 667.824219 240.488281 667.144531 C 237.683594 666.464844 234.929688 665.621094 232.230469 664.605469 C 229.53125 663.589844 226.902344 662.414062 224.347656 661.078125 C 221.789062 659.738281 219.324219 658.253906 216.949219 656.613281 C 214.574219 654.976562 212.308594 653.199219 210.152344 651.285156 C 207.996094 649.371094 205.964844 647.328125 204.054688 645.164062 C 202.148438 643.003906 200.378906 640.730469 198.75 638.351562 C 197.089844 635.953125 195.578125 633.464844 194.214844 630.886719 C 192.855469 628.304688 191.65625 625.652344 190.613281 622.929688 C 189.574219 620.207031 188.699219 617.429688 187.992188 614.597656 C 187.285156 611.769531 186.753906 608.90625 186.390625 606.011719 C 186.03125 603.121094 185.84375 600.214844 185.832031 597.296875 C 185.820312 594.382812 185.984375 591.476562 186.324219 588.578125 C 186.664062 585.683594 187.175781 582.816406 187.863281 579.980469 C 188.546875 577.144531 189.398438 574.363281 190.421875 571.632812 C 191.429688 568.914062 192.488281 566.21875 193.601562 563.542969 C 194.714844 560.867188 195.875 558.214844 197.085938 555.582031 C 198.300781 552.949219 199.5625 550.339844 200.875 547.757812 C 202.183594 545.171875 203.542969 542.617188 204.953125 540.082031 C 206.363281 537.550781 207.816406 535.046875 209.320312 532.570312 C 210.824219 530.09375 212.375 527.644531 213.972656 525.226562 C 215.570312 522.808594 217.210938 520.421875 218.898438 518.066406 C 220.585938 515.710938 222.316406 513.386719 224.09375 511.097656 C 225.867188 508.808594 227.6875 506.550781 229.546875 504.332031 C 231.40625 502.109375 233.3125 499.925781 235.253906 497.777344 C 237.199219 495.628906 239.183594 493.519531 241.207031 491.445312 C 243.230469 489.371094 245.292969 487.335938 247.394531 485.34375 C 249.496094 483.347656 251.636719 481.390625 253.8125 479.480469 C 255.988281 477.566406 258.199219 475.691406 260.445312 473.863281 C 262.691406 472.035156 264.972656 470.246094 267.289062 468.503906 C 269.601562 466.761719 271.949219 465.0625 274.328125 463.40625 C 276.707031 461.753906 279.117188 460.144531 281.558594 458.582031 C 283.996094 457.019531 286.464844 455.503906 288.964844 454.035156 C 291.460938 452.566406 293.988281 451.144531 296.539062 449.773438 C 299.089844 448.402344 301.667969 447.078125 304.269531 445.800781 C 306.871094 444.527344 309.496094 443.300781 312.144531 442.125 C 314.792969 440.949219 317.464844 439.824219 320.15625 438.75 C 322.847656 437.679688 325.558594 436.65625 328.285156 435.683594 C 331.015625 434.714844 333.765625 433.792969 336.53125 432.925781 C 339.292969 432.0625 342.074219 431.246094 344.871094 430.484375 C 347.667969 429.726562 350.476562 429.015625 353.296875 428.363281 C 356.121094 427.707031 358.957031 427.105469 361.800781 426.5625 C 364.648438 426.015625 367.5 425.519531 370.367188 425.082031 C 373.230469 424.644531 376.101562 424.261719 378.980469 423.929688 C 381.859375 423.601562 384.742188 423.328125 387.632812 423.105469 C 390.523438 422.886719 393.414062 422.722656 396.308594 422.613281 C 399.207031 422.503906 402.101562 422.449219 405 422.449219 C 407.898438 422.449219 410.792969 422.503906 413.691406 422.613281 C 416.585938 422.722656 419.476562 422.886719 422.367188 423.105469 C 425.257812 423.328125 428.140625 423.601562 431.019531 423.929688 C 433.898438 424.261719 436.769531 424.644531 439.632812 425.082031 C 442.5 425.519531 445.351562 426.015625 448.199219 426.5625 C 451.042969 427.105469 453.878906 427.707031 456.699219 428.363281 C 459.523438 429.015625 462.332031 429.726562 465.128906 430.484375 C 467.925781 431.246094 470.707031 432.0625 473.46875 432.925781 C 476.234375 433.792969 478.984375 434.714844 481.710938 435.683594 C 484.441406 436.65625 487.152344 437.679688 489.84375 438.75 C 492.535156 439.824219 495.207031 440.949219 497.855469 442.125 C 500.503906 443.300781 503.128906 444.527344 505.730469 445.800781 C 508.332031 447.078125 510.910156 448.402344 513.460938 449.773438 C 516.011719 451.144531 518.539062 452.566406 521.035156 454.035156 C 523.53125 455.503906 526.003906 457.019531 528.441406 458.582031 C 530.882812 460.144531 533.292969 461.753906 535.671875 463.40625 C 538.050781 465.0625 540.398438 466.761719 542.710938 468.503906 C 545.027344 470.246094 547.308594 472.035156 549.554688 473.863281 C 551.800781 475.691406 554.011719 477.566406 556.1875 479.480469 C 558.363281 481.390625 560.503906 483.347656 562.605469 485.34375 C 564.707031 487.335938 566.769531 489.371094 568.792969 491.445312 C 570.816406 493.519531 572.800781 495.628906 574.746094 497.777344 C 576.6875 499.925781 578.589844 502.109375 580.453125 504.332031 C 582.3125 506.550781 584.132812 508.808594 585.90625 511.097656 C 587.683594 513.386719 589.414062 515.710938 591.101562 518.066406 C 592.789062 520.421875 594.429688 522.808594 596.027344 525.226562 C 597.625 527.644531 599.175781 530.09375 600.679688 532.570312 C 602.183594 535.046875 603.636719 537.550781 605.046875 540.082031 C 606.453125 542.617188 607.816406 545.171875 609.125 547.757812 C 610.4375 550.339844 611.699219 552.949219 612.914062 555.582031 C 614.125 558.214844 615.285156 560.867188 616.398438 563.542969 C 617.507812 566.21875 618.570312 568.914062 619.578125 571.632812 C 620.601562 574.363281 621.453125 577.144531 622.136719 579.980469 C 622.824219 582.816406 623.335938 585.683594 623.675781 588.578125 C 624.015625 591.476562 624.179688 594.382812 624.167969 597.296875 C 624.15625 600.214844 623.96875 603.121094 623.609375 606.011719 C 623.246094 608.90625 622.714844 611.769531 622.007812 614.597656 C 621.300781 617.429688 620.425781 620.207031 619.386719 622.929688 C 618.34375 625.652344 617.144531 628.304688 615.78125 630.886719 C 614.421875 633.464844 612.910156 635.953125 611.25 638.351562 Z M 686.738281 405 L 633.914062 405 L 633.914062 457.824219 C 633.914062 458.402344 633.882812 458.976562 633.828125 459.550781 C 633.773438 460.125 633.6875 460.695312 633.574219 461.261719 C 633.460938 461.828125 633.320312 462.386719 633.15625 462.9375 C 632.988281 463.488281 632.792969 464.03125 632.574219 464.566406 C 632.351562 465.097656 632.105469 465.617188 631.832031 466.125 C 631.5625 466.636719 631.265625 467.128906 630.945312 467.609375 C 630.625 468.089844 630.28125 468.550781 629.914062 468.996094 C 629.550781 469.441406 629.164062 469.871094 628.753906 470.277344 C 628.347656 470.683594 627.921875 471.070312 627.476562 471.4375 C 627.027344 471.804688 626.566406 472.148438 626.085938 472.46875 C 625.609375 472.789062 625.113281 473.082031 624.605469 473.355469 C 624.097656 473.628906 623.574219 473.875 623.042969 474.09375 C 622.511719 474.316406 621.96875 474.507812 621.414062 474.675781 C 620.863281 474.84375 620.304688 474.984375 619.738281 475.097656 C 619.175781 475.207031 618.605469 475.292969 618.03125 475.351562 C 617.457031 475.40625 616.882812 475.433594 616.304688 475.433594 C 615.726562 475.433594 615.152344 475.40625 614.578125 475.351562 C 614.003906 475.292969 613.433594 475.207031 612.867188 475.097656 C 612.304688 474.984375 611.746094 474.84375 611.191406 474.675781 C 610.640625 474.507812 610.097656 474.316406 609.566406 474.09375 C 609.03125 473.875 608.511719 473.628906 608.003906 473.355469 C 607.496094 473.082031 607 472.789062 606.519531 472.46875 C 606.042969 472.148438 605.578125 471.804688 605.132812 471.4375 C 604.6875 471.070312 604.261719 470.683594 603.851562 470.277344 C 603.445312 469.871094 603.058594 469.441406 602.691406 468.996094 C 602.328125 468.550781 601.984375 468.089844 601.664062 467.609375 C 601.34375 467.128906 601.046875 466.636719 600.773438 466.125 C 600.503906 465.617188 600.257812 465.097656 600.035156 464.566406 C 599.816406 464.03125 599.621094 463.488281 599.453125 462.9375 C 599.285156 462.386719 599.144531 461.828125 599.035156 461.261719 C 598.921875 460.695312 598.835938 460.125 598.78125 459.550781 C 598.722656 458.976562 598.695312 458.402344 598.695312 457.824219 L 598.695312 405 L 545.871094 405 C 545.292969 405 544.71875 404.972656 544.144531 404.914062 C 543.570312 404.859375 543 404.773438 542.433594 404.660156 C 541.867188 404.550781 541.308594 404.410156 540.757812 404.242188 C 540.207031 404.074219 539.664062 403.878906 539.132812 403.660156 C 538.597656 403.4375 538.078125 403.191406 537.570312 402.921875 C 537.058594 402.648438 536.566406 402.351562 536.085938 402.03125 C 535.605469 401.710938 535.144531 401.367188 534.699219 401.003906 C 534.253906 400.636719 533.824219 400.25 533.417969 399.84375 C 533.011719 399.433594 532.625 399.007812 532.257812 398.5625 C 531.890625 398.117188 531.546875 397.652344 531.226562 397.175781 C 530.90625 396.695312 530.613281 396.199219 530.339844 395.691406 C 530.066406 395.183594 529.820312 394.664062 529.601562 394.128906 C 529.378906 393.597656 529.1875 393.054688 529.019531 392.503906 C 528.851562 391.949219 528.710938 391.390625 528.597656 390.828125 C 528.488281 390.261719 528.402344 389.691406 528.34375 389.117188 C 528.289062 388.542969 528.261719 387.96875 528.261719 387.390625 C 528.261719 386.816406 528.289062 386.238281 528.34375 385.664062 C 528.402344 385.089844 528.488281 384.523438 528.597656 383.957031 C 528.710938 383.390625 528.851562 382.832031 529.019531 382.28125 C 529.1875 381.726562 529.378906 381.183594 529.601562 380.652344 C 529.820312 380.121094 530.066406 379.597656 530.339844 379.089844 C 530.613281 378.582031 530.90625 378.085938 531.226562 377.609375 C 531.546875 377.128906 531.890625 376.667969 532.257812 376.21875 C 532.625 375.773438 533.011719 375.347656 533.417969 374.941406 C 533.824219 374.53125 534.253906 374.144531 534.699219 373.78125 C 535.144531 373.414062 535.605469 373.070312 536.085938 372.75 C 536.566406 372.429688 537.058594 372.132812 537.570312 371.863281 C 538.078125 371.589844 538.597656 371.34375 539.132812 371.121094 C 539.664062 370.902344 540.207031 370.707031 540.757812 370.539062 C 541.308594 370.375 541.867188 370.234375 542.433594 370.121094 C 543 370.007812 543.570312 369.925781 544.144531 369.867188 C 544.71875 369.8125 545.292969 369.78125 545.871094 369.78125 L 598.695312 369.78125 L 598.695312 316.957031 C 598.695312 316.378906 598.722656 315.804688 598.78125 315.230469 C 598.835938 314.65625 598.921875 314.085938 599.035156 313.519531 C 599.144531 312.957031 599.285156 312.398438 599.453125 311.84375 C 599.621094 311.292969 599.816406 310.75 600.035156 310.21875 C 600.257812 309.683594 600.503906 309.164062 600.773438 308.65625 C 601.046875 308.148438 601.34375 307.652344 601.664062 307.171875 C 601.984375 306.695312 602.328125 306.230469 602.691406 305.785156 C 603.058594 305.339844 603.445312 304.914062 603.851562 304.503906 C 604.261719 304.097656 604.6875 303.710938 605.132812 303.34375 C 605.578125 302.980469 606.042969 302.636719 606.519531 302.316406 C 607 301.996094 607.496094 301.699219 608.003906 301.425781 C 608.511719 301.15625 609.03125 300.910156 609.566406 300.6875 C 610.097656 300.46875 610.640625 300.273438 611.191406 300.105469 C 611.746094 299.9375 612.304688 299.796875 612.867188 299.6875 C 613.433594 299.574219 614.003906 299.488281 614.578125 299.433594 C 615.152344 299.375 615.726562 299.347656 616.304688 299.347656 C 616.882812 299.347656 617.457031 299.375 618.03125 299.433594 C 618.605469 299.488281 619.175781 299.574219 619.738281 299.6875 C 620.304688 299.796875 620.863281 299.9375 621.414062 300.105469 C 621.96875 300.273438 622.511719 300.46875 623.042969 300.6875 C 623.574219 300.910156 624.097656 301.15625 624.605469 301.425781 C 625.113281 301.699219 625.609375 301.996094 626.085938 302.316406 C 626.566406 302.636719 627.03125 302.980469 627.476562 303.34375 C 627.921875 303.710938 628.347656 304.097656 628.753906 304.503906 C 629.164062 304.914062 629.550781 305.339844 629.914062 305.785156 C 630.28125 306.230469 630.625 306.695312 630.945312 307.171875 C 631.265625 307.652344 631.5625 308.148438 631.832031 308.65625 C 632.105469 309.164062 632.351562 309.683594 632.574219 310.21875 C 632.792969 310.75 632.988281 311.292969 633.15625 311.84375 C 633.320312 312.398438 633.460938 312.957031 633.574219 313.519531 C 633.6875 314.085938 633.773438 314.65625 633.828125 315.230469 C 633.882812 315.804688 633.914062 316.378906 633.914062 316.957031 L 633.914062 369.78125 L 686.738281 369.78125 C 687.316406 369.78125 687.890625 369.8125 688.464844 369.867188 C 689.039062 369.925781 689.609375 370.007812 690.175781 370.121094 C 690.738281 370.234375 691.296875 370.375 691.851562 370.539062 C 692.402344 370.707031 692.945312 370.902344 693.476562 371.121094 C 694.011719 371.34375 694.53125 371.589844 695.039062 371.863281 C 695.546875 372.132812 696.042969 372.429688 696.523438 372.75 C 697 373.070312 697.464844 373.414062 697.910156 373.78125 C 698.355469 374.144531 698.78125 374.53125 699.191406 374.941406 C 699.597656 375.347656 699.984375 375.773438 700.351562 376.21875 C 700.714844 376.667969 701.058594 377.128906 701.378906 377.609375 C 701.699219 378.085938 701.996094 378.582031 702.269531 379.089844 C 702.539062 379.597656 702.785156 380.121094 703.007812 380.652344 C 703.226562 381.183594 703.421875 381.726562 703.589844 382.28125 C 703.757812 382.832031 703.898438 383.390625 704.007812 383.957031 C 704.121094 384.523438 704.207031 385.089844 704.261719 385.664062 C 704.320312 386.238281 704.347656 386.816406 704.347656 387.390625 C 704.347656 387.96875 704.320312 388.542969 704.261719 389.117188 C 704.207031 389.691406 704.121094 390.261719 704.007812 390.828125 C 703.898438 391.390625 703.757812 391.949219 703.589844 392.503906 C 703.421875 393.054688 703.226562 393.597656 703.007812 394.128906 C 702.785156 394.664062 702.539062 395.183594 702.269531 395.691406 C 701.996094 396.199219 701.699219 396.695312 701.378906 397.175781 C 701.058594 397.652344 700.714844 398.117188 700.351562 398.5625 C 699.984375 399.007812 699.597656 399.433594 699.191406 399.84375 C 698.78125 400.25 698.355469 400.636719 697.910156 401.003906 C 697.464844 401.367188 697 401.710938 696.523438 402.03125 C 696.042969 402.351562 695.546875 402.648438 695.039062 402.921875 C 694.53125 403.191406 694.011719 403.4375 693.476562 403.660156 C 692.945312 403.878906 692.402344 404.074219 691.851562 404.242188 C 691.296875 404.410156 690.738281 404.550781 690.175781 404.660156 C 689.609375 404.773438 689.039062 404.859375 688.464844 404.914062 C 687.890625 404.972656 687.316406 405 686.738281 405 Z M 686.738281 405"/></clipPath><linearGradient x1="20.701" gradientTransform="matrix(17.6087 0 0 17.6087 -70.435 -70.435)" xmlns:xlink="http://www.w3.org/1999/xlink" y1="43.971" x2="35.682" gradientUnits="userSpaceOnUse" y2="28.309" xlink:type="simple" xlink:actuate="onLoad" id="c" xlink:show="other"><stop stop-color="#16CBE6" offset="0"/><stop stop-color="#16CBE6" offset=".016"/><stop stop-color="#17CBE6" offset=".031"/><stop stop-color="#18CBE6" offset=".047"/><stop stop-color="#19CBE6" offset=".063"/><stop stop-color="#1ACCE7" offset=".078"/><stop stop-color="#1BCCE7" offset=".094"/><stop stop-color="#1CCCE7" offset=".109"/><stop stop-color="#1CCCE7" offset=".125"/><stop stop-color="#1DCCE7" offset=".141"/><stop stop-color="#1ECDE7" offset=".156"/><stop stop-color="#1FCDE7" offset=".172"/><stop stop-color="#20CDE7" offset=".188"/><stop stop-color="#21CDE7" offset=".203"/><stop stop-color="#21CEE7" offset=".219"/><stop stop-color="#22CEE7" offset=".234"/><stop stop-color="#23CEE7" offset=".25"/><stop stop-color="#24CEE7" offset=".266"/><stop stop-color="#25CEE7" offset=".281"/><stop stop-color="#26CFE7" offset=".297"/><stop stop-color="#27CFE7" offset=".313"/><stop stop-color="#27CFE7" offset=".328"/><stop stop-color="#28CFE7" offset=".333"/><stop stop-color="#29CFE7" offset=".344"/><stop stop-color="#29CFE7" offset=".359"/><stop stop-color="#2AD0E8" offset=".375"/><stop stop-color="#2BD0E8" offset=".391"/><stop stop-color="#2CD0E8" offset=".406"/><stop stop-color="#2CD0E8" offset=".422"/><stop stop-color="#2DD0E8" offset=".438"/><stop stop-color="#2ED1E8" offset=".453"/><stop stop-color="#2FD1E8" offset=".469"/><stop stop-color="#30D1E8" offset=".484"/><stop stop-color="#31D1E8" offset=".5"/><stop stop-color="#32D2E8" offset=".516"/><stop stop-color="#32D2E8" offset=".531"/><stop stop-color="#33D2E8" offset=".547"/><stop stop-color="#34D2E8" offset=".563"/><stop stop-color="#35D2E8" offset=".578"/><stop stop-color="#36D3E8" offset=".594"/><stop stop-color="#37D3E8" offset=".609"/><stop stop-color="#37D3E8" offset=".625"/><stop stop-color="#38D3E8" offset=".641"/><stop stop-color="#39D3E8" offset=".656"/><stop stop-color="#3AD4E8" offset=".667"/><stop stop-color="#3AD4E9" offset=".672"/><stop stop-color="#3BD4E9" offset=".688"/><stop stop-color="#3CD4E9" offset=".703"/><stop stop-color="#3DD4E9" offset=".719"/><stop stop-color="#3DD5E9" offset=".734"/><stop stop-color="#3ED5E9" offset=".75"/><stop stop-color="#3FD5E9" offset=".766"/><stop stop-color="#40D5E9" offset=".781"/><stop stop-color="#41D5E9" offset=".797"/><stop stop-color="#42D6E9" offset=".813"/><stop stop-color="#42D6E9" offset=".828"/><stop stop-color="#43D6E9" offset=".844"/><stop stop-color="#44D6E9" offset=".859"/><stop stop-color="#45D6E9" offset=".875"/><stop stop-color="#46D7E9" offset=".891"/><stop stop-color="#47D7E9" offset=".906"/><stop stop-color="#48D7E9" offset=".922"/><stop stop-color="#48D7E9" offset=".938"/><stop stop-color="#49D7E9" offset=".953"/><stop stop-color="#4AD8E9" offset=".969"/><stop stop-color="#4BD8EA" offset=".984"/><stop stop-color="#4CD8EA" offset="1"/></linearGradient><linearGradient x1="21.137" gradientTransform="matrix(17.6087 0 0 17.6087 -70.435 -70.435)" xmlns:xlink="http://www.w3.org/1999/xlink" y1="24.131" x2="32.864" gradientUnits="userSpaceOnUse" y2="11.87" xlink:type="simple" xlink:actuate="onLoad" id="f" xlink:show="other"><stop stop-color="#3BD4E9" offset="0"/><stop stop-color="#3BD4E9" offset=".016"/><stop stop-color="#3CD4E9" offset=".031"/><stop stop-color="#3CD4E9" offset=".047"/><stop stop-color="#3DD4E9" offset=".063"/><stop stop-color="#3ED5E9" offset=".078"/><stop stop-color="#3ED5E9" offset=".094"/><stop stop-color="#3FD5E9" offset=".109"/><stop stop-color="#40D5E9" offset=".125"/><stop stop-color="#40D5E9" offset=".141"/><stop stop-color="#41D5E9" offset=".156"/><stop stop-color="#42D6E9" offset=".172"/><stop stop-color="#42D6E9" offset=".188"/><stop stop-color="#43D6E9" offset=".203"/><stop stop-color="#44D6E9" offset=".219"/><stop stop-color="#44D6E9" offset=".234"/><stop stop-color="#45D6E9" offset=".25"/><stop stop-color="#46D7E9" offset=".266"/><stop stop-color="#46D7E9" offset=".281"/><stop stop-color="#47D7E9" offset=".297"/><stop stop-color="#48D7E9" offset=".313"/><stop stop-color="#48D7E9" offset=".328"/><stop stop-color="#49D7E9" offset=".344"/><stop stop-color="#49D8E9" offset=".359"/><stop stop-color="#4AD8E9" offset=".375"/><stop stop-color="#4BD8E9" offset=".391"/><stop stop-color="#4BD8EA" offset=".406"/><stop stop-color="#4CD8EA" offset=".422"/><stop stop-color="#4DD8EA" offset=".438"/><stop stop-color="#4DD9EA" offset=".453"/><stop stop-color="#4ED9EA" offset=".469"/><stop stop-color="#4FD9EA" offset=".484"/><stop stop-color="#4FD9EA" offset=".489"/><stop stop-color="#50D9EA" offset=".5"/><stop stop-color="#50D9EA" offset=".511"/><stop stop-color="#50D9EA" offset=".516"/><stop stop-color="#51D9EA" offset=".531"/><stop stop-color="#51DAEA" offset=".547"/><stop stop-color="#52DAEA" offset=".563"/><stop stop-color="#53DAEA" offset=".578"/><stop stop-color="#53DAEA" offset=".594"/><stop stop-color="#54DAEA" offset=".609"/><stop stop-color="#55DAEA" offset=".625"/><stop stop-color="#55DBEA" offset=".641"/><stop stop-color="#56DBEA" offset=".656"/><stop stop-color="#57DBEA" offset=".672"/><stop stop-color="#57DBEA" offset=".688"/><stop stop-color="#58DBEA" offset=".703"/><stop stop-color="#59DBEA" offset=".719"/><stop stop-color="#59DCEA" offset=".734"/><stop stop-color="#5ADCEA" offset=".75"/><stop stop-color="#5BDCEA" offset=".766"/><stop stop-color="#5BDCEA" offset=".781"/><stop stop-color="#5CDCEB" offset=".797"/><stop stop-color="#5DDCEB" offset=".813"/><stop stop-color="#5DDDEB" offset=".828"/><stop stop-color="#5EDDEB" offset=".844"/><stop stop-color="#5FDDEB" offset=".859"/><stop stop-color="#5FDDEB" offset=".875"/><stop stop-color="#60DDEB" offset=".891"/><stop stop-color="#61DDEB" offset=".906"/><stop stop-color="#61DEEB" offset=".922"/><stop stop-color="#62DEEB" offset=".938"/><stop stop-color="#63DEEB" offset=".953"/><stop stop-color="#63DEEB" offset=".969"/><stop stop-color="#64DEEB" offset=".984"/><stop stop-color="#65DEEB" offset="1"/></linearGradient><linearGradient x1="4.522" gradientTransform="matrix(17.6087 0 0 17.6087 -70.435 -70.435)" xmlns:xlink="http://www.w3.org/1999/xlink" y1="50.5" x2="49.478" gradientUnits="userSpaceOnUse" y2="3.501" xlink:type="simple" xlink:actuate="onLoad" id="h" xlink:show="other"><stop stop-color="#00C5E5" offset="0"/><stop stop-color="#00C5E5" offset=".063"/><stop stop-color="#00C5E5" offset=".094"/><stop stop-color="#00C5E5" offset=".109"/><stop stop-color="#01C5E5" offset=".113"/><stop stop-color="#01C5E5" offset=".117"/><stop stop-color="#02C6E5" offset=".121"/><stop stop-color="#03C6E5" offset=".125"/><stop stop-color="#03C6E5" offset=".129"/><stop stop-color="#04C6E5" offset=".133"/><stop stop-color="#05C6E5" offset=".137"/><stop stop-color="#05C6E5" offset=".141"/><stop stop-color="#06C7E5" offset=".145"/><stop stop-color="#06C7E5" offset=".148"/><stop stop-color="#07C7E5" offset=".152"/><stop stop-color="#08C7E5" offset=".156"/><stop stop-color="#08C7E5" offset=".16"/><stop stop-color="#09C7E6" offset=".164"/><stop stop-color="#0AC8E6" offset=".168"/><stop stop-color="#0AC8E6" offset=".172"/><stop stop-color="#0BC8E6" offset=".176"/><stop stop-color="#0CC8E6" offset=".18"/><stop stop-color="#0CC8E6" offset=".184"/><stop stop-color="#0DC8E6" offset=".188"/><stop stop-color="#0DC8E6" offset=".191"/><stop stop-color="#0EC9E6" offset=".195"/><stop stop-color="#0FC9E6" offset=".199"/><stop stop-color="#0FC9E6" offset=".203"/><stop stop-color="#10C9E6" offset=".207"/><stop stop-color="#11C9E6" offset=".211"/><stop stop-color="#11C9E6" offset=".215"/><stop stop-color="#12CAE6" offset=".219"/><stop stop-color="#13CAE6" offset=".223"/><stop stop-color="#13CAE6" offset=".227"/><stop stop-color="#14CAE6" offset=".23"/><stop stop-color="#14CAE6" offset=".234"/><stop stop-color="#15CAE6" offset=".238"/><stop stop-color="#16CBE6" offset=".242"/><stop stop-color="#16CBE6" offset=".246"/><stop stop-color="#17CBE6" offset=".25"/><stop stop-color="#18CBE6" offset=".254"/><stop stop-color="#18CBE6" offset=".258"/><stop stop-color="#19CBE6" offset=".262"/><stop stop-color="#1ACCE7" offset=".266"/><stop stop-color="#1ACCE7" offset=".27"/><stop stop-color="#1BCCE7" offset=".273"/><stop stop-color="#1BCCE7" offset=".277"/><stop stop-color="#1CCCE7" offset=".281"/><stop stop-color="#1DCCE7" offset=".285"/><stop stop-color="#1DCCE7" offset=".289"/><stop stop-color="#1ECDE7" offset=".293"/><stop stop-color="#1FCDE7" offset=".297"/><stop stop-color="#1FCDE7" offset=".301"/><stop stop-color="#20CDE7" offset=".305"/><stop stop-color="#20CDE7" offset=".309"/><stop stop-color="#21CDE7" offset=".313"/><stop stop-color="#22CEE7" offset=".316"/><stop stop-color="#22CEE7" offset=".32"/><stop stop-color="#23CEE7" offset=".324"/><stop stop-color="#24CEE7" offset=".328"/><stop stop-color="#24CEE7" offset=".332"/><stop stop-color="#25CEE7" offset=".336"/><stop stop-color="#26CFE7" offset=".34"/><stop stop-color="#26CFE7" offset=".344"/><stop stop-color="#27CFE7" offset=".348"/><stop stop-color="#27CFE7" offset=".352"/><stop stop-color="#28CFE7" offset=".355"/><stop stop-color="#29CFE7" offset=".359"/><stop stop-color="#29CFE7" offset=".363"/><stop stop-color="#2AD0E8" offset=".367"/><stop stop-color="#2BD0E8" offset=".371"/><stop stop-color="#2BD0E8" offset=".375"/><stop stop-color="#2CD0E8" offset=".379"/><stop stop-color="#2DD0E8" offset=".383"/><stop stop-color="#2DD0E8" offset=".387"/><stop stop-color="#2ED1E8" offset=".391"/><stop stop-color="#2ED1E8" offset=".395"/><stop stop-color="#2FD1E8" offset=".398"/><stop stop-color="#30D1E8" offset=".402"/><stop stop-color="#30D1E8" offset=".406"/><stop stop-color="#31D1E8" offset=".41"/><stop stop-color="#32D2E8" offset=".414"/><stop stop-color="#32D2E8" offset=".418"/><stop stop-color="#33D2E8" offset=".422"/><stop stop-color="#34D2E8" offset=".426"/><stop stop-color="#34D2E8" offset=".43"/><stop stop-color="#35D2E8" offset=".434"/><stop stop-color="#35D3E8" offset=".438"/><stop stop-color="#36D3E8" offset=".441"/><stop stop-color="#37D3E8" offset=".445"/><stop stop-color="#37D3E8" offset=".449"/><stop stop-color="#38D3E8" offset=".453"/><stop stop-color="#39D3E8" offset=".457"/><stop stop-color="#39D3E8" offset=".461"/><stop stop-color="#3AD4E8" offset=".465"/><stop stop-color="#3AD4E9" offset=".469"/><stop stop-color="#3BD4E9" offset=".473"/><stop stop-color="#3CD4E9" offset=".477"/><stop stop-color="#3CD4E9" offset=".48"/><stop stop-color="#3DD4E9" offset=".484"/><stop stop-color="#3ED5E9" offset=".488"/><stop stop-color="#3ED5E9" offset=".492"/><stop stop-color="#3FD5E9" offset=".496"/><stop stop-color="#40D5E9" offset=".5"/><stop stop-color="#40D5E9" offset=".504"/><stop stop-color="#41D5E9" offset=".508"/><stop stop-color="#41D6E9" offset=".512"/><stop stop-color="#42D6E9" offset=".516"/><stop stop-color="#43D6E9" offset=".52"/><stop stop-color="#43D6E9" offset=".523"/><stop stop-color="#44D6E9" offset=".527"/><stop stop-color="#45D6E9" offset=".531"/><stop stop-color="#45D6E9" offset=".535"/><stop stop-color="#46D7E9" offset=".539"/><stop stop-color="#47D7E9" offset=".543"/><stop stop-color="#47D7E9" offset=".547"/><stop stop-color="#48D7E9" offset=".551"/><stop stop-color="#48D7E9" offset=".555"/><stop stop-color="#49D7E9" offset=".559"/><stop stop-color="#4AD8E9" offset=".563"/><stop stop-color="#4AD8E9" offset=".566"/><stop stop-color="#4BD8EA" offset=".57"/><stop stop-color="#4CD8EA" offset=".574"/><stop stop-color="#4CD8EA" offset=".578"/><stop stop-color="#4DD8EA" offset=".582"/><stop stop-color="#4DD9EA" offset=".586"/><stop stop-color="#4ED9EA" offset=".59"/><stop stop-color="#4FD9EA" offset=".594"/><stop stop-color="#4FD9EA" offset=".598"/><stop stop-color="#50D9EA" offset=".602"/><stop stop-color="#51D9EA" offset=".605"/><stop stop-color="#51DAEA" offset=".609"/><stop stop-color="#52DAEA" offset=".613"/><stop stop-color="#53DAEA" offset=".617"/><stop stop-color="#53DAEA" offset=".621"/><stop stop-color="#54DAEA" offset=".625"/><stop stop-color="#54DAEA" offset=".629"/><stop stop-color="#55DAEA" offset=".633"/><stop stop-color="#56DBEA" offset=".637"/><stop stop-color="#56DBEA" offset=".641"/><stop stop-color="#57DBEA" offset=".645"/><stop stop-color="#58DBEA" offset=".648"/><stop stop-color="#58DBEA" offset=".652"/><stop stop-color="#59DBEA" offset=".656"/><stop stop-color="#5ADCEA" offset=".66"/><stop stop-color="#5ADCEA" offset=".664"/><stop stop-color="#5BDCEA" offset=".668"/><stop stop-color="#5BDCEB" offset=".672"/><stop stop-color="#5CDCEB" offset=".676"/><stop stop-color="#5DDCEB" offset=".68"/><stop stop-color="#5DDDEB" offset=".684"/><stop stop-color="#5EDDEB" offset=".688"/><stop stop-color="#5FDDEB" offset=".691"/><stop stop-color="#5FDDEB" offset=".695"/><stop stop-color="#60DDEB" offset=".699"/><stop stop-color="#61DDEB" offset=".703"/><stop stop-color="#61DDEB" offset=".707"/><stop stop-color="#62DEEB" offset=".711"/><stop stop-color="#62DEEB" offset=".715"/><stop stop-color="#63DEEB" offset=".719"/><stop stop-color="#64DEEB" offset=".723"/><stop stop-color="#64DEEB" offset=".727"/><stop stop-color="#65DEEB" offset=".73"/><stop stop-color="#66DFEB" offset=".734"/><stop stop-color="#66DFEB" offset=".738"/><stop stop-color="#67DFEB" offset=".742"/><stop stop-color="#67DFEB" offset=".746"/><stop stop-color="#68DFEB" offset=".75"/><stop stop-color="#69DFEB" offset=".754"/><stop stop-color="#69E0EB" offset=".758"/><stop stop-color="#6AE0EB" offset=".762"/><stop stop-color="#6BE0EB" offset=".766"/><stop stop-color="#6BE0EB" offset=".77"/><stop stop-color="#6CE0EB" offset=".773"/><stop stop-color="#6DE0EC" offset=".777"/><stop stop-color="#6DE1EC" offset=".781"/><stop stop-color="#6EE1EC" offset=".785"/><stop stop-color="#6EE1EC" offset=".789"/><stop stop-color="#6FE1EC" offset=".793"/><stop stop-color="#70E1EC" offset=".797"/><stop stop-color="#70E1EC" offset=".801"/><stop stop-color="#71E1EC" offset=".805"/><stop stop-color="#72E2EC" offset=".809"/><stop stop-color="#72E2EC" offset=".813"/><stop stop-color="#73E2EC" offset=".816"/><stop stop-color="#74E2EC" offset=".82"/><stop stop-color="#74E2EC" offset=".824"/><stop stop-color="#75E2EC" offset=".828"/><stop stop-color="#75E3EC" offset=".832"/><stop stop-color="#76E3EC" offset=".836"/><stop stop-color="#77E3EC" offset=".84"/><stop stop-color="#77E3EC" offset=".844"/><stop stop-color="#78E3EC" offset=".848"/><stop stop-color="#79E3EC" offset=".852"/><stop stop-color="#79E4EC" offset=".855"/><stop stop-color="#7AE4EC" offset=".859"/><stop stop-color="#7BE4EC" offset=".863"/><stop stop-color="#7BE4EC" offset=".867"/><stop stop-color="#7CE4EC" offset=".871"/><stop stop-color="#7CE4EC" offset=".875"/><stop stop-color="#7DE4ED" offset=".879"/><stop stop-color="#7EE5ED" offset=".883"/><stop stop-color="#7EE5ED" offset=".887"/><stop stop-color="#7FE5ED" offset=".891"/><stop stop-color="#80E5ED" offset=".895"/><stop stop-color="#80E5ED" offset=".898"/><stop stop-color="#81E5ED" offset=".902"/><stop stop-color="#81E6ED" offset=".906"/><stop stop-color="#82E6ED" offset=".91"/><stop stop-color="#83E6ED" offset=".914"/><stop stop-color="#83E6ED" offset=".922"/><stop stop-color="#83E6ED" offset=".938"/><stop stop-color="#83E6ED" offset="1"/></linearGradient></defs><path fill="#FFF" d="M-81 -81H891V891H-81z"/><path fill="#FFF" d="M-81 -81H891V891H-81z"/><path fill="#FFF" d="M-81 -81H891V891H-81z"/><g clip-path="url(#a)"><g clip-path="url(#b)"><path fill="url(#c)" d="M 220.984375 457.824219 L 220.984375 633.921875 L 589.015625 633.921875 L 589.015625 457.824219 Z M 220.984375 457.824219"/></g></g><g clip-path="url(#d)"><g clip-path="url(#e)"><path fill="url(#f)" d="M 299.347656 140.871094 L 299.347656 352.175781 L 510.652344 352.175781 L 510.652344 140.871094 Z M 299.347656 140.871094"/></g></g><g clip-path="url(#g)"><path fill="url(#h)" d="M-81 -81H891V891H-81z"/></g></svg>