<svg width="47" height="45" viewBox="0 0 47 45" fill="none" xmlns="http://www.w3.org/2000/svg">
<path d="M46.7353 22.5C46.7353 28.4603 44.3248 34.177 40.0328 38.3954C35.7408 42.6138 29.9181 44.9891 23.8427 45C17.7674 45.0108 11.9359 42.6563 7.62832 38.4533C3.32071 34.2502 0.888959 28.5421 0.866851 22.5819C0.844743 16.6216 3.23409 10.8963 7.51041 6.66263C11.7867 2.42895 17.6006 0.0328696 23.6758 0.000335659C29.7511 -0.0321983 35.5912 2.30148 39.9144 6.4891C44.2376 10.6767 46.6905 16.3761 46.7347 22.3362" fill="#FFD31D"/>
<path d="M24.2048 39.7379C21.1871 39.7379 18.2231 38.9344 15.6143 37.409C13.0055 35.8836 10.8449 33.6908 9.35223 31.0535C7.85955 28.4162 7.08799 25.4285 7.11601 22.3941C7.14404 19.3598 7.97064 16.387 9.51178 13.778C11.0529 11.169 13.2536 9.01696 15.8901 7.54056C18.5267 6.06417 21.505 5.31612 24.5222 5.37247" fill="white" fill-opacity="0.4"/>
<path d="M24.4087 39.6842C27.4265 39.6842 30.3904 38.8807 32.9992 37.3553C35.608 35.83 37.7686 33.6371 39.2613 30.9999C40.754 28.3626 41.5255 25.3748 41.4975 22.3405C41.4695 19.3061 40.6429 16.3333 39.1017 13.7244C37.5606 11.1154 35.3599 8.96331 32.7234 7.48691C30.0869 6.01052 27.1086 5.26247 24.0913 5.31882" fill="#D4AA00" fill-opacity="0.15"/>
</svg>
