<svg xmlns="http://www.w3.org/2000/svg" width="810" viewBox="0 0 810 810" height="810" version="1.0"><defs><clipPath id="a"><path d="M 507 405 L 524.632812 405 L 524.632812 412 L 507 412 Z M 507 405"/></clipPath><clipPath id="b"><path d="M 507 375 L 524.632812 375 L 524.632812 382 L 507 382 Z M 507 375"/></clipPath></defs><path fill="#474F59" d="M 372.425781 243 L 376.835938 243 L 376.835938 259.476562 L 372.425781 259.476562 Z M 372.425781 243"/><path fill="#474F59" d="M 341.226562 246.75 L 345.554688 245.820312 L 348.96875 261.953125 L 344.660156 262.859375 Z M 341.226562 246.75"/><path fill="#474F59" d="M 311.507812 256.890625 L 315.542969 255.097656 L 322.257812 270.148438 L 318.203125 271.941406 Z M 311.507812 256.890625"/><path fill="#474F59" d="M 284.558594 272.988281 L 288.109375 270.394531 L 297.792969 283.730469 L 294.222656 286.320312 Z M 284.558594 272.988281"/><path fill="#474F59" d="M 261.515625 294.359375 L 264.460938 291.074219 L 276.707031 302.097656 L 273.75 305.382812 Z M 261.515625 294.359375"/><path fill="#474F59" d="M 243.421875 320.042969 L 245.628906 316.21875 L 259.894531 324.457031 L 257.6875 328.304688 Z M 243.421875 320.042969"/><path fill="#474F59" d="M 231.078125 348.9375 L 232.433594 344.734375 L 248.097656 349.824219 L 246.738281 354.03125 Z M 231.078125 348.9375"/><path fill="#474F59" d="M 225 379.765625 L 225.453125 375.347656 L 241.824219 377.09375 L 241.367188 381.484375 Z M 225 379.765625"/><path fill="#474F59" d="M 225 406.777344 L 241.367188 405.0625 L 241.824219 409.453125 L 225.453125 411.191406 Z M 225 406.777344"/><path fill="#474F59" d="M 231.078125 437.605469 L 246.738281 432.535156 L 248.097656 436.714844 L 232.433594 441.808594 Z M 231.078125 437.605469"/><path fill="#474F59" d="M 243.421875 466.5 L 257.6875 458.265625 L 259.894531 462.09375 L 245.628906 470.320312 Z M 243.421875 466.5"/><path fill="#474F59" d="M 276.699219 484.457031 L 264.460938 495.484375 L 261.507812 492.203125 L 273.742188 481.175781 Z M 276.699219 484.457031"/><path fill="#474F59" d="M 297.78125 502.824219 L 288.105469 516.148438 L 284.550781 513.566406 L 294.226562 500.238281 Z M 297.78125 502.824219"/><path fill="#474F59" d="M 311.507812 529.652344 L 318.203125 514.613281 L 322.257812 516.40625 L 315.542969 531.457031 Z M 311.507812 529.652344"/><path fill="#474F59" d="M 427.03125 516.40625 L 431.050781 514.613281 L 437.753906 529.652344 L 433.710938 531.457031 Z M 427.03125 516.40625"/><path fill="#474F59" d="M 451.460938 502.8125 L 455.03125 500.230469 L 464.734375 513.554688 L 461.144531 516.140625 Z M 451.460938 502.8125"/><path fill="#474F59" d="M 472.550781 484.449219 L 475.507812 481.167969 L 487.742188 492.1875 L 484.796875 495.46875 Z M 472.550781 484.449219"/><path fill="#474F59" d="M 505.832031 466.515625 L 503.628906 470.335938 L 489.367188 462.101562 L 491.570312 458.28125 Z M 505.832031 466.515625"/><path fill="#474F59" d="M 501.160156 436.714844 L 502.519531 432.539062 L 518.183594 437.605469 L 516.820312 441.808594 Z M 501.160156 436.714844"/><g clip-path="url(#a)"><path fill="#474F59" d="M 507.429688 409.460938 L 507.886719 405.074219 L 524.261719 406.777344 L 523.8125 411.191406 Z M 507.429688 409.460938"/></g><g clip-path="url(#b)"><path fill="#474F59" d="M 507.429688 377.09375 L 523.804688 375.347656 L 524.265625 379.765625 L 507.890625 381.484375 Z M 507.429688 377.09375"/></g><path fill="#474F59" d="M 501.160156 349.832031 L 516.820312 344.734375 L 518.183594 348.9375 L 502.53125 354.03125 Z M 501.160156 349.832031"/><path fill="#474F59" d="M 489.371094 324.460938 L 503.628906 316.222656 L 505.835938 320.050781 L 491.578125 328.304688 Z M 489.371094 324.460938"/><path fill="#474F59" d="M 472.566406 302.097656 L 484.796875 291.074219 L 487.742188 294.359375 L 475.515625 305.382812 Z M 472.566406 302.097656"/><path fill="#474F59" d="M 451.472656 283.730469 L 461.144531 270.398438 L 464.734375 273 L 455.046875 286.320312 Z M 451.472656 283.730469"/><path fill="#474F59" d="M 427.03125 270.148438 L 433.710938 255.105469 L 437.753906 256.890625 L 431.066406 271.9375 Z M 427.03125 270.148438"/><path fill="#474F59" d="M 400.292969 261.953125 L 403.703125 245.824219 L 408.035156 246.75 L 404.601562 262.851562 Z M 400.292969 261.953125"/><path fill="#FFDB79" d="M 374.632812 312.949219 C 330.292969 312.957031 294.351562 348.910156 294.351562 393.265625 C 294.351562 416.765625 304.457031 437.898438 320.527344 452.582031 C 321.292969 453.246094 322.058594 453.90625 322.828125 454.574219 C 335.378906 466.015625 343.261719 482.476562 343.261719 500.792969 L 343.261719 517.003906 L 405.996094 517.003906 L 405.996094 500.792969 C 405.996094 482.476562 413.882812 466.015625 426.433594 454.574219 C 427.199219 453.90625 427.960938 453.246094 428.730469 452.582031 C 444.804688 437.898438 454.910156 416.765625 454.910156 393.265625 C 454.90625 348.910156 418.96875 312.957031 374.632812 312.949219 Z M 374.632812 312.949219"/><path fill="#FDCA5C" d="M 434.484375 393.265625 C 434.484375 426.34375 407.691406 453.144531 374.628906 453.144531 C 341.566406 453.144531 314.769531 426.34375 314.769531 393.265625 C 314.769531 360.210938 341.566406 333.394531 374.628906 333.394531 C 407.691406 333.394531 434.484375 360.210938 434.484375 393.265625 Z M 434.484375 393.265625"/><path fill="#FFF" d="M 379.261719 415.445312 L 369.984375 415.445312 L 365.757812 352.097656 L 383.496094 352.097656 Z M 379.261719 415.445312"/><path fill="#FFF" d="M 380.957031 428.117188 C 380.957031 431.605469 378.132812 434.429688 374.625 434.429688 C 371.125 434.429688 368.296875 431.605469 368.296875 428.117188 C 368.296875 424.613281 371.125 421.792969 374.625 421.792969 C 378.132812 421.792969 380.957031 424.609375 380.957031 428.117188 Z M 380.957031 428.117188"/><path fill="#353F49" d="M 339.589844 516.996094 L 409.671875 516.996094 L 409.671875 554.046875 L 339.589844 554.046875 Z M 339.589844 516.996094"/><path fill="#474F59" d="M 336.386719 522.300781 L 412.851562 522.300781 L 412.851562 527.578125 L 336.386719 527.578125 Z M 336.386719 522.300781"/><path fill="#474F59" d="M 336.386719 532.894531 L 412.851562 532.894531 L 412.851562 538.191406 L 336.386719 538.191406 Z M 336.386719 532.894531"/><path fill="#474F59" d="M 336.386719 543.472656 L 412.851562 543.472656 L 412.851562 548.777344 L 336.386719 548.777344 Z M 336.386719 543.472656"/><path fill="#474F59" d="M 351.851562 554.046875 L 397.40625 554.046875 L 397.40625 567 L 351.851562 567 Z M 351.851562 554.046875"/></svg>