<?xml version="1.0" encoding="utf-8"?>
<!-- Generator: Adobe Illustrator 25.2.1, SVG Export Plug-In . SVG Version: 6.00 Build 0)  -->
<svg version="1.1" id="Layer_1" xmlns="http://www.w3.org/2000/svg" xmlns:xlink="http://www.w3.org/1999/xlink" x="0px" y="0px"
	 viewBox="0 0 100 40" style="enable-background:new 0 0 100 40;" xml:space="preserve">
<style type="text/css">
	.st0{display:none;fill:#4BF1F7;}
	.st1{fill:#4BF1F7;}
</style>
<g>
	<g>
		<path class="st0" d="M50,0c8.7,0,17.4,0,26.1,0C76.9,0,77,0.1,77,0.9c0,12.8,0,25.6,0,38.4c0,0.7-0.1,0.8-0.9,0.8
			c-17.4,0-34.9,0-52.3,0c-0.7,0-0.9-0.1-0.9-0.8c0-12.8,0-25.6,0-38.4C23,0.1,23.1,0,23.9,0C32.6,0,41.3,0,50,0z"/>
		<path class="st1" d="M66,14.4c-4.7-0.4-8.9,1.7-10.5,5.6c-3,7.5,2.2,14.2,9.3,14c5.7,0,9.9-3.8,10.2-9.1
			C75.4,19.3,71.6,14.9,66,14.4z M64.9,28.7c-5.8,0-5.8-9,0-9C70.7,19.7,70.7,28.7,64.9,28.7z"/>
		<path class="st1" d="M30.7,19.5c0,3.9,0,7.7,0,11.6c0,1.9-0.4,2.3-2.3,2.3c-3.5,0-3.5,0-3.5-3.5c0-5.5,0-11,0-16.5
			c0-2.1,0.4-4.1,1.9-5.7c0.4-0.4,0.8-0.8,1.3-1.1c1.7-0.9,2.7-0.4,2.7,1.5C30.7,11.9,30.7,15.7,30.7,19.5z"/>
		<path class="st1" d="M51.5,19.6c0,3.8,0,7.6,0,11.4c0,2-0.4,2.4-2.4,2.4c-3.5,0-3.5,0-3.5-3.4c0-5.6,0-11.1,0-16.7
			c0-2.1,0.4-4.1,1.9-5.7c0.3-0.4,0.7-0.7,1.2-1c1.8-1,2.7-0.5,2.7,1.6C51.5,11.9,51.5,15.8,51.5,19.6z"/>
		<path class="st1" d="M41.2,24.2c0,2.3,0,4.6,0,6.9c0,1.7-0.4,2.2-2.2,2.2c-3.6,0-3.6,0-3.6-3.6c0-4.2,0-8.3,0-12.5
			c0-1.8,0.4-2.2,2.2-2.2c0.5,0,1,0,1.4,0c1.8,0,2.2,0.4,2.2,2.3C41.2,19.6,41.2,21.9,41.2,24.2z"/>
		<path class="st1" d="M38.3,5.9c1.9,0,3.2,1.3,3.2,3.1c0,1.8-1.4,3.2-3.2,3.2c-1.9,0-3.3-1.4-3.3-3.2C35,7.2,36.4,5.9,38.3,5.9z"/>
		<path class="st0" d="M69.2,24.3c0,2.8-1.7,4.6-4.3,4.6c-2.7,0-4.3-1.8-4.3-4.7c0-2.8,1.8-4.6,4.4-4.6
			C67.5,19.6,69.2,21.5,69.2,24.3z"/>
	</g>
</g>
<path d="M65,19.6"/>
</svg>
