<?xml version="1.0" encoding="utf-8"?>
<!-- Generator: Adobe Illustrator 25.2.1, SVG Export Plug-In . SVG Version: 6.00 Build 0)  -->
<svg version="1.1" id="Camada_1" xmlns="http://www.w3.org/2000/svg" xmlns:xlink="http://www.w3.org/1999/xlink" x="0px" y="0px"
	 viewBox="0 0 810 810" style="enable-background:new 0 0 810 810;" xml:space="preserve">
<style type="text/css">
	.st0{fill:#FFD31D;}
</style>
<path class="st0" d="M572.2,231.5c-2.5-3.1-6.3-5-10.1-5H247.8c-4.4,0-8.2,1.9-10.1,5l-75.4,106.3c-0.6,1.3-1.3,1.9-1.9,3.1v0.6
	c0,1.3-0.6,1.9-0.6,3.1c0,0,0,0,0,0.6c0,1.3,0,1.9,0.6,3.1v0.6c0.6,1.3,1.3,1.9,1.9,3.1l232.6,296.3c0,0,0,0,0.6,0.6
	s0.6,1.3,1.3,1.3l0.6,0.6c0,0,0.6,0,0.6,0.6c0,0,0.6,0.6,1.3,0.6s0.6,0.6,1.3,0.6c0,0,0.6,0,0.6,0.6h0.6h0.6c0.6,0,1.9,0,2.5,0
	s1.9,0,2.5,0h0.6h0.6c0,0,0.6,0,0.6-0.6c0.6,0,0.6,0,1.3-0.6c0.6,0,0.6-0.6,1.3-0.6c0,0,0.6,0,0.6-0.6l0.6-0.6
	c0.6-0.6,1.3-0.6,1.3-1.3c0,0,0,0,0.6-0.6l232.6-296.3c3.1-4.4,3.8-10.1,0.6-14.5L572.2,231.5z M254.1,251h121.3l-83,81.8h-96.2
	L254.1,251z M405,257.3l76.7,75.5H328.3L405,257.3z M198.1,357.9h91.2L366.6,573L198.1,357.9z M405,604.5l-89.3-246.6h177.9
	L405,604.5z M443.4,573l77.3-215.1h91.2L443.4,573z M516.9,332.8l-83-81.8h122l57.8,81.8H516.9z"/>
<g>
	<g>
		<path class="st0" d="M762.8,338.4l20.1-58.5c3.8-11.3-0.6-23.9-10.7-30.2l-52.8-31.4l-0.6-62.3c0-12-8.8-22.6-20.1-24.5
			l-60.4-11.3l-21.4-57.9c-3.8-10.1-13.2-16.4-23.3-16.4c-1.3,0-2.5,0-4.4,0.6l-60.4,10.1L489.3,9.4c-5-5.7-11.9-8.8-18.9-8.8
			c-4.4,0-8.2,1.3-12.6,3.1L405,34L351.6,3.1C347.8,0.6,343.4,0,339,0c-6.9,0-13.8,3.1-18.9,8.8L280.5,56l-60.4-10.1
			c-1.3,0-2.5-0.6-4.4-0.6c-10.1,0-19.5,6.3-23.3,16.4l-21.4,57.9l-60.4,11.3c-11.9,2.5-20.1,12.6-20.1,24.5L90,217.6l-52.8,31.5
			c-10.1,6.3-15.1,18.9-10.7,30.2l20.1,58.5l-39,47.8c-7.5,9.4-7.5,22.6,0,32.1l39,47.8L26.5,524c-3.8,11.3,0.6,23.9,10.7,30.2
			L90,585.6l0.6,62.3c0,12,8.8,22.6,20.1,24.5l60.4,11.3l21.4,57.9c3.8,10.1,13.2,16.4,23.3,16.4c1.3,0,2.5,0,4.4-0.6l60.4-10.1
			l39.6,47.2c5,5.7,11.9,8.8,18.9,8.8c4.4,0,8.2-1.3,12.6-3.1l53.4-30.8l53.4,30.8c3.8,2.5,8.2,3.1,12.6,3.1
			c6.9,0,13.8-3.1,18.9-8.8l39.6-47.2l60.4,10.1c1.3,0,2.5,0.6,4.4,0.6c10.1,0,19.5-6.3,23.3-16.4l21.4-57.9l60.4-11.3
			c11.9-2.5,20.1-12.6,20.1-24.5l0.6-62.3l52.8-31.5c10.1-6.3,15.1-18.9,10.7-30.2l-20.1-58.5l39-47.8c7.5-9.4,7.5-22.6,0-32.1
			L762.8,338.4z M667.2,368L434.6,664.9c-6.9,8.8-18.2,14.5-29.6,14.5s-22.6-5.7-29.6-14.5L142.8,368c-10.1-13.2-10.7-30.8-1.3-44
			L217,217c6.9-10.1,18.9-15.7,30.8-15.7h314.4c12.6,0,23.9,5.7,30.8,15.7l75.4,106.9C677.9,337.2,677.9,355.4,667.2,368z"/>
	</g>
</g>
</svg>
