<svg width="42" height="48" viewBox="0 0 42 48" fill="none" xmlns="http://www.w3.org/2000/svg">
<path d="M37.3134 13.8794C39.1877 17.5485 39.1497 31.3602 37.2553 35.0115C35.361 38.6627 24.6763 45.518 20.9077 45.5001C17.1391 45.4822 6.49244 38.5258 4.61819 34.8566C2.74395 31.1875 2.78193 17.3758 4.67629 13.7245C6.57066 10.0733 17.2553 3.21802 21.0239 3.2359C24.7925 3.25378 35.4392 10.2102 37.3134 13.8794Z" fill="#F85F73"/>
<path d="M30.616 18.2232C31.7316 20.4079 31.7047 28.6342 30.575 30.8096C29.4453 32.985 23.0775 37.0721 20.8323 37.0629C18.587 37.0537 12.2461 32.9145 11.1305 30.7299C10.015 28.5453 10.0419 20.319 11.1716 18.1435C12.3013 15.9681 18.6691 11.881 20.9143 11.8902C23.1596 11.8994 29.5005 16.0386 30.616 18.2232Z" fill="white" fill-opacity="0.0963855"/>
<path d="M37.9186 15.0382C35.4705 16.9914 33.1435 18.0822 30.8964 17.921C30.8964 17.921 27.8512 15.4604 26.2933 14.4288C24.65 13.3407 21.3275 11.6228 21.3275 11.6228C20.996 10.4875 21.2627 7.47617 21.0425 3.41216C21.0425 3.41216 24.0746 3.03739 30.7488 7.56511C37.4229 12.0928 37.9186 15.0382 37.9186 15.0382Z" fill="white" fill-opacity="0.361446"/>
</svg>
