<?xml version="1.0" encoding="utf-8"?>
<!-- Generator: Adobe Illustrator 24.0.1, SVG Export Plug-In . SVG Version: 6.00 Build 0)  -->
<svg version="1.1" id="f2557a61-56ef-4ee7-9811-4cdcc73688e4"
	 xmlns="http://www.w3.org/2000/svg" xmlns:xlink="http://www.w3.org/1999/xlink" x="0px" y="0px" viewBox="0 0 1121.81 699.08"
	 style="enable-background:new 0 0 1121.81 699.08;" xml:space="preserve">
<style type="text/css">
	.st0{fill:#F2F2F2;}
	.st1{fill:#FF6584;}
	.st2{fill:#3F3D56;}
	.st3{opacity:0.1;enable-background:new    ;}
	.st4{fill:#4EA685;}
	.st5{opacity:0.5;fill:#3F3D56;enable-background:new    ;}
	.st6{display:none;fill:#FEFEFE;}
	.st7{fill:#805333;}
	.st8{fill:#FCD6AC;}
	.st9{fill:#A46A43;}
	.st10{fill:#FA7B76;}
	.st11{fill:#F8C694;}
	.st12{fill:#DAB89C;}
	.st13{fill:#E7B98E;}
	.st14{fill:#E7B88C;}
	.st15{fill:#EBEFF0;}
	.st16{fill:#802D40;}
	.st17{fill:#FE5364;}
	.st18{fill:#E8BA8D;}
	.st19{fill:#E8BA8E;}
	.st20{fill:#3F5C6C;}
</style>
<title>creative team</title>
<path class="st0" d="M852.81,114c-140.28,0-254,113.72-254,254s113.72,254,254,254s254-113.72,254-254S993.09,114,852.81,114z
	 M754.48,444.84c-4.51-0.07-9.03-0.6-13.54-0.45c-3.71,0.12-7.34,0.92-11.05,1.05c-8.11,0.27-15.99-0.59-24.12,0.12
	c-1.26,0.11-2.27-0.19-3.04-0.75c-1.24-0.07-2.35-0.6-3.26-1.44c-0.98-0.9-1.41-2.24-1.46-3.54c-0.06-1.25,0.6-2.67,1.46-3.54
	c0.91-0.91,2.25-1.46,3.54-1.46h1.92c0.1,0,0.2,0.01,0.3,0.02c0.39-0.09,0.81-0.14,1.26-0.14c2.84,0.01,5.67,0.12,8.51,0.18
	c0.2-0.03,0.4-0.06,0.61-0.06h12.72c0.21,0,0.41,0.01,0.6,0.03c1.56-0.01,3.12-0.03,4.68-0.03c0.47,0,0.9,0.06,1.31,0.16
	c2.32-0.28,4.64-0.59,7-0.61c4.19-0.03,8.38,0.39,12.58,0.45C760.92,434.94,760.92,444.94,754.48,444.84z"/>
<circle class="st1" cx="137.81" cy="97" r="97"/>
<circle class="st0" cx="311.81" cy="267" r="254"/>
<ellipse class="st2" cx="299.81" cy="520" rx="279" ry="15"/>
<ellipse class="st3" cx="243.81" cy="520.52" rx="209" ry="10.34"/>
<ellipse class="st2" cx="842.81" cy="624.5" rx="279" ry="16.5"/>
<ellipse class="st3" cx="786.81" cy="625.07" rx="209" ry="11.38"/>
<ellipse class="st2" cx="400.9" cy="586" rx="178.04" ry="9"/>
<ellipse class="st2" cx="85.9" cy="556" rx="85.9" ry="4.34"/>
<ellipse class="st2" cx="952.93" cy="691" rx="159.88" ry="8.08"/>
<rect x="615.81" y="433" class="st2" width="320" height="190"/>
<circle class="st4" cx="718.81" cy="530" r="72"/>
<path class="st5" d="M718.81,458v144c39.76,0,74-32.24,74-72S758.57,458,718.81,458z"/>
<rect x="64.81" y="277" class="st2" width="350" height="243"/>
<path class="st4" d="M989.81,668.93c0,20.36-12.1,27.46-27.03,27.46c-0.35,0-0.69-0.01-1.03-0.01c-0.69-0.01-1.38-0.05-2.05-0.09
	c-13.47-0.95-23.94-8.43-23.94-27.36c0-19.59,25.03-44.31,26.92-46.14l0,0c0.07-0.07,0.11-0.11,0.11-0.11
	S989.81,648.58,989.81,668.93z"/>
<path class="st2" d="M961.79,693.28l9.89-13.81l-9.91,15.33l-0.02,1.58c-0.69-0.01-1.38-0.05-2.05-0.09l1.06-20.36l-0.01-0.16
	l0.02-0.03l0.1-1.93l-9.94-15.37l9.97,13.92l0.02,0.41l0.8-15.39l-8.51-15.88l8.61,13.18l0.84-31.9l0-0.11v0.11l-0.14,25.16
	l8.47-9.97l-8.5,12.14l-0.22,13.78l7.91-13.22l-7.94,15.25l-0.12,7.66l11.48-18.4l-11.52,21.08L961.79,693.28z"/>
<path class="st4" d="M112.81,529.93c0,20.36-12.1,27.46-27.03,27.46c-0.35,0-0.69-0.01-1.03-0.01c-0.69-0.01-1.38-0.05-2.05-0.09
	c-13.47-0.95-23.94-8.43-23.94-27.36c0-19.59,25.03-44.31,26.92-46.14l0,0c0.07-0.07,0.11-0.11,0.11-0.11
	S112.81,509.58,112.81,529.93z"/>
<path class="st2" d="M84.79,554.28l9.89-13.81l-9.91,15.33l-0.02,1.58c-0.69-0.01-1.38-0.05-2.05-0.09l1.06-20.36l-0.01-0.16
	l0.02-0.03l0.1-1.93l-9.94-15.37l9.97,13.92l0.02,0.41l0.8-15.39l-8.51-15.88l8.61,13.18l0.84-31.9l0-0.11v0.11l-0.14,25.16
	l8.47-9.97l-8.5,12.14l-0.22,13.78l7.91-13.22l-7.94,15.25l-0.12,7.66l11.48-18.4l-11.52,21.08L84.79,554.28z"/>
<g>
	<g>
		<g>
			<path class="st6" d="M773.44,439.89c-36.73,0-73.46-0.02-110.19,0.05c-1.94,0-2.32-0.38-2.31-2.32
				c0.06-95.12,0.06-190.25,0-285.37c0-1.93,0.38-2.32,2.31-2.31c95.12,0.06,190.25,0.06,285.37,0c1.93,0,2.32,0.38,2.31,2.31
				c-0.06,95.12-0.06,190.25,0,285.37c0,1.93-0.38,2.32-2.31,2.31c-55.19-0.07-110.38-0.05-165.57-0.05
				c-0.12-0.75,0.43-1.04,0.97-1.14c4.5-0.8,8.53-2.86,12.66-4.66c5.27-0.37,10.54-0.16,15.81-0.17
				c13.84-0.04,27.68-0.06,41.51,0.02c3.17,0.02,5.96-0.54,8.21-2.93c1.35-1.43,3.13-1.53,4.96-1.53c9.13,0.01,18.26,0.01,27.39,0
				c1.22,0,2.45,0.12,3.65-0.22c7.91-0.57,15.72-1.7,23.13-4.74c9.05-3.71,16.32-9.33,19.79-18.89c1.57-4.32,1.86-8.84,1.62-13.37
				c-0.39-7.17-1.36-14.21-4.35-20.88c-4.35-9.71-12.22-15.79-21.1-20.87c-1.31-0.75-2.7-1.33-4.01-2.09
				c-5.34-3.06-6.68-8.65-3.11-13.69c3.34-4.71,8.09-7.23,13.77-7.96c2.15-0.27,4.3-0.51,6.44-0.8c4.48-0.61,7.36-4.26,7.27-8.97
				c-0.09-4.41-3.23-8.12-7.55-8.46c-15.49-1.22-32.67,6.88-38.38,22.95c-4.53,12.75,0.51,26.13,12.46,32.55
				c3.47,1.87,6.96,3.71,10.17,6.07c6.84,5.03,9.9,11.86,10.14,20.16c0.04,1.51-0.07,3.02,0.02,4.52c0.3,5.11-2.15,8.6-6.38,11.09
				c-4.72,2.78-9.92,4.05-15.28,4.72c-10.41,1.31-20.88,0.44-31.32,0.63c-0.84,0.02-1.71-0.08-2.33-0.8
				c-0.98-2.65-0.7-5.42-0.4-8.08c1.13-10.2,0.11-20.25-1.69-30.27c-2.53-14.03-7.1-27.46-12.13-40.74
				c-0.54-2.27-1.85-4.28-2.24-6.6c0.25-1.73,1.74-2.05,3.01-2.6c8.51-3.71,16.43-8.35,23.06-14.93
				c6.91-6.86,11.95-14.93,15.1-24.17c1.41-2.87,1.49-6.24,3.3-8.97c0.93-0.47,1.84-0.19,2.75,0.07c5.99,1.78,12.12,2.69,18.34,3.04
				c6.17,0.35,10.27-2.99,13.43-7.84c2.51-3.84,3.97-8.12,4.76-12.6c2.13-12.08,2.01-24.02-2.97-35.48
				c-2.52-5.8-6.47-10.22-13.21-11.03c-3.01-0.36-5.99,0.41-8.97,0.77c-5.91,0.7-11.64,2.25-17.34,3.9
				c-1.16,0.33-2.34,0.87-3.52,0.03c-2.01-2.68-3.48-5.75-5.82-8.2c-7.43-9.75-16.98-16.7-28.24-21.38
				c-12.01-4.99-24.56-7.67-37.51-8.67c-7.22-0.55-14.46-0.63-21.66-1.19c-8.66-0.67-16.84-3.22-23.65-8.96
				c-3.71-3.12-5.97-7.21-6.97-11.98c-0.51-2.43-0.85-2.59-2.84-1.16c-3.7,2.66-6.94,5.81-9.3,9.72c-1.43,2.37-3.2,3.04-5.9,2.44
				c-6.46-1.44-11.2-5.11-14.69-10.59c-0.39-0.62-0.56-1.64-1.36-1.67c-1.04-0.04-1.21,1.09-1.48,1.83
				c-1.6,4.34-3.07,8.71-2.48,13.46c0.88,7.03,4.95,11.8,10.85,15.28c1.06,0.63,2.61,0.88,2.61,2.61c-2.49,2.64-6.09,3.6-8.84,5.85
				c-5.88,3.83-10.92,8.58-15.32,14.03c-2.32,2.35-3.19,5.78-5.89,7.86c-2.11,0.03-4.05-0.79-6.03-1.33
				c-5.29-1.45-10.71-2.14-16.13-2.66c-6.48-0.63-10.87,2.9-14.22,7.98c-2.86,4.34-4.07,9.3-4.96,14.31
				c-2.01,11.36-1.29,22.5,3.12,33.25c3.03,7.39,8.82,11.9,14.9,11.51c4.5-0.29,9-0.71,13.41-1.76c1.09-0.26,2.17-0.69,3.32-0.35
				c1.22,0.85,1.27,2.25,1.61,3.49c2.96,10.75,8.23,20.25,16.11,28.1c7.77,7.73,17.08,13.2,27.42,16.92
				c8.09,2.91,16.46,4.65,24.88,6.22c0.25,0.15,0.4,0.38,0.47,0.66c-0.62,1.97-2.41,2.99-3.71,4.39c-1.08,1.16-2.09,2.35-3.02,3.62
				c-8.24,9.19-14.93,19.42-20.54,30.39c-0.75,1.46-1.21,3.23-3.15,3.7c-3.46-0.3-6.92-0.42-10.4-0.39
				c-9.97,0.08-18.2,6.33-20.81,15.88c-0.12,0.45-0.2,0.92-0.37,1.36c-0.26,0.67-0.28,1.67-1.17,1.73s-1.1-0.91-1.42-1.55
				c-2.21-4.49-5.78-7.03-10.74-7.68c-3.2-0.42-5.72,0.61-7.53,3.31c-2.32,3.45-3.39,7.36-3.77,11.4
				c-0.83,8.83-0.95,17.64,2.16,26.17c0.42,1.15,0.89,2.27,1.44,3.37c2.13,4.26,5.23,7.32,10.14,8.1c0.64,0.2,1.3,0.22,1.96,0.22
				c16.53-0.02,33.06,0.08,49.58-0.05c3.42,0.19,6.85-0.04,10.27,0.13C767.97,435.92,771.07,437.3,773.44,439.89z"/>
			<path class="st7" d="M773.44,439.89c-2.72-1.34-5.49-2.61-7.8-4.64c-0.49-0.32-1.02-0.58-1.43-1.02
				c-4.82-5.24-6.46-11.87-7.67-18.54c-1.42-7.84-1.22-15.74,0.52-23.56c0.85-3.8,2.06-7.44,4.34-10.66c2.27-3.2,5.2-5.52,9.19-5.97
				c2.35-0.27,3.04-1.46,3.46-3.6c2.87-14.53,16.81-26.24,31.58-26.54c6.25-0.12,4.91-0.25,6.64-4.82c1.14-2.75,2.21-5.53,3.72-8.11
				c0.62-0.84,1.31-1.61,2.3-2.04c0.73-0.26,1.49-0.32,2.26-0.33c9.75-0.43,19.15-2.65,28.43-5.52c1.29-0.4,2.76-1.62,4.08,0.06
				c0.8,2.02,1.61,4.04,2.41,6.07c0.53,1.81-0.95,2.03-2.03,2.42c-8.17,2.93-16.5,5.29-25.12,6.39c-2.74,0.35-4.44,1.39-5.32,4.12
				c-0.88,2.71-1.46,5.44-1.88,8.24c-0.58,3.84-2.99,5.68-6.86,5.39c-6.62-0.51-13.21-0.61-19.2,2.96
				c-6.67,3.97-10.14,9.81-10.3,18.15c1.53-1.42,2.49-2.77,3.62-3.93c5.76-5.91,12.7-8.66,20.98-8.8
				c8.58-0.14,16.43,1.63,23.28,6.99c3.01,2.35,5.24,5.38,7.18,8.62c1.06,1.78,1.23,3.74,0.9,5.74c-0.38,2.26-1.71,3.77-3.95,4.28
				c-2.27,0.52-4.31,0.08-5.79-1.92c-0.34-0.45-0.68-0.92-0.88-1.45c-3.16-8.59-14.02-11.86-21.92-10.84
				c-6.66,0.86-12.08,3.51-14.84,10.09c-0.48,1.13-0.84,2.29-1.02,3.51c-0.67,4.49-2.11,6.38-5.11,6.81
				c-2.76,0.4-4.81-1.21-6.68-5.32c-0.8-1.77-1.93-3.23-3.62-4.2c-3.37-1.96-6-1.12-7.47,2.47c-1.99,4.88-2.47,10.1-2.47,15.24
				c0,4.95,0.64,9.95,2.34,14.71c0.7,1.96,1.5,3.87,2.62,5.61c1.23,1.92,2.97,3.35,5.29,3.27c2.9-0.1,5.83-0.16,8.66-1.01
				c2.47-0.74,4.32-1.93,5.22-4.61c1.04-3.06,3.74-4.47,6.38-3.81c2.9,0.73,4.73,3.17,4.28,6.38c-0.52,3.72-1.91,7.06-5.74,8.67
				c-3.84,2.96-8.55,3.66-13,5.04C779.84,439.89,776.64,439.89,773.44,439.89z"/>
			<path class="st8" d="M820.28,330.79c-0.7,0.03-1.4,0.07-2.09,0.1c-2.82,1.78-6.02,1.09-9.07,1.38c-5.46,0.85-10.92,0.76-16.38,0
				c-2.15-0.22-4.3-0.02-6.45-0.13c-0.79-0.04-1.56-0.22-2.32-0.44c-1.19-0.19-2.4-0.07-3.6-0.17c-0.74-0.08-1.47-0.25-2.19-0.43
				c-0.89-0.1-1.8-0.15-2.49-0.83c-9.5-0.77-18.55-3.38-27.41-6.71c-9.33-3.51-17.79-8.58-24.9-15.55
				c-9.18-8.99-15.23-19.86-17.76-32.56c-1.13-0.9-1.29-2.21-1.55-3.5c-1.96-9.73-1.69-19.57-1.44-29.41
				c0.64-3.25,0.91-6.57,1.84-9.76c1.3-5.57,3.27-10.9,5.72-16.07c0.52-1.09,0.96-2.26,2.2-2.79c1.17-2.99,3-5.55,5.07-7.96
				c7.74-1.69,15.5-2.61,23.48-2.06c5.44,0.37,10.9,0.33,16.3,1.23c6.54,1.09,12.96,2.49,18.36,6.69c1.15,0.9,2.19,0.74,3.37,0.05
				c7.82-4.56,16.51-6.19,25.33-7.23c7.67-0.91,15.39-1.17,23.07-0.55c17.92,1.46,32.56,12.03,37.09,32.03
				c1.79,7.91,1.58,15.93,1.2,23.89c-0.45,9.49-1.73,18.91-4.28,28.12c-2.74,9.92-6.81,19.21-13.56,27.04
				C840.54,323.61,831.63,329.42,820.28,330.79z"/>
			<path class="st9" d="M820.28,330.79c5.74-1.75,11.43-3.58,16.53-6.93c11.05-7.26,17.76-17.72,21.89-29.94
				c5.89-17.44,7.56-35.45,5.65-53.69c-2.13-20.43-17.87-34.69-38.44-35.48c-12.16-0.47-24.22,0.13-36.02,3.42
				c-4.09,1.14-8.07,2.56-11.58,5.02c-0.85,0.6-1.49,0.9-2.44,0.03c-5.24-4.84-11.89-6.29-18.6-7.26
				c-12.79-1.84-25.61-2.42-38.37,0.45c-0.54,0.12-1.14,0.21-1.46-0.47c4.37-5.5,9.39-10.28,15.3-14.11
				c3.42,2.49,7.35,3.74,11.39,4.73c0.64,0.16,1.31,0.18,1.97,0.14c2.22-0.15,3.91-1.53,4.24-3.47c0.32-1.86-0.87-3.78-2.96-4.6
				c-1.83-0.72-3.82-1.01-5.58-1.93c0.03-1.18-1.06-1.22-1.73-1.58c-14.17-7.6-15.24-21.44-7.59-34c1.06,0.77,1.2,2.07,1.79,3.09
				c3.61,6.17,8.96,9.71,15.97,10.92c1.58,0.27,2.33-0.34,3.11-1.64c2.89-4.85,6.83-8.72,11.6-11.74c0.92-0.58,2.02-1.53,2.2,0.71
				c0.74,8.89,6.27,14.14,13.74,17.87c8.33,4.16,17.3,4.71,26.39,4.9c16.85,0.35,33.35,2.73,49.04,9.23
				c11.14,4.62,20.79,11.31,28.32,20.85c0.27,0.35,0.41,0.81,0.6,1.21c-0.55,1.46-1.97,1.61-3.17,2.07c-1.4,0.54-2.88,0.89-4.2,1.62
				c-2.22,1.22-3,3.11-2.15,5.14c0.88,2.13,3.07,3.31,5.3,2.51c3.17-1.14,6.49-1.9,9.47-3.56c0.79,1.04,1.67,0.44,2.54,0.14
				c7.97-2.69,16.18-4.25,24.54-4.98c5.27-0.46,9.62,1.44,12.95,5.5c4.98,6.06,6.78,13.35,7.6,20.91c1.13,10.33,0.5,20.53-3.7,30.2
				c-2.94,6.77-7.43,12.03-15.54,11.93c-6.21-0.08-12.35-1.2-18.35-2.89c-1.08-0.3-2.18-0.53-3.28-0.79
				c-1.35,0.58-2.58-0.07-3.81-0.45c-2.16-0.65-4.27-1.46-6.43-2.08c-2.65-0.76-4.73,0.18-5.56,2.41c-0.82,2.19,0.25,4.28,2.88,5.26
				c2.2,0.82,4.39,1.66,6.65,2.32c1.23,0.36,2.61,0.5,3.51,1.61c-6.67,19.27-20.32,31.7-38.73,39.46c-0.98,0.41-2.3,0.37-2.69,1.73
				c-1.18-0.59-2.17,0.14-3.2,0.47C840.22,328.12,830.46,330.52,820.28,330.79z"/>
			<path class="st9" d="M796.04,434.84c2.83-2.6,5.08-5.52,5.08-9.61c0-2.53-1.59-4.49-4.12-4.88c-2.32-0.36-4.47,0.69-4.91,2.82
				c-0.98,4.71-4.55,5.56-8.25,6.32c-2.18,0.45-4.47,0.81-6.68,0.65c-2.75-0.2-4.89-1.74-6.23-4.27c-2.59-4.88-3.75-10.08-4.4-15.57
				c-0.69-5.89,0.06-11.55,1.23-17.24c0.08-0.37,0.1-0.76,0.26-1.09c1.09-2.23,1.05-5.44,4.48-5.76c3.93-0.36,7.21,1.73,8.66,5.39
				c0.55,1.4,0.83,3,2.07,3.92c1.44,1.07,2.98,1.75,4.98,0.96c2.18-0.87,3.06-2.54,3.23-4.54c1.1-12.89,12.86-16.66,22.22-15.73
				c4.21,0.42,8.24,1.6,11.72,4.29c2.14,1.65,3.85,3.6,4.95,6.03c1.77,3.92,4.03,5.18,7.1,3.82c2.78-1.23,3.75-4.96,1.95-8.34
				c-2.85-5.36-6.9-9.74-12.46-12.18c-10.63-4.65-21.4-5.35-32.01,0.28c-3.82,2.03-6.64,5.16-9.18,8.59
				c-0.34,0.45-0.49,1.39-1.43,0.97c-0.46-0.21-0.64-0.68-0.61-1.18c0.58-8.26,3.73-14.98,11.28-19.18
				c6.15-3.42,12.77-3.43,19.45-2.8c3.23,0.31,5.64-1.39,5.91-4.67c0.31-3.87,1.52-7.5,2.95-11.08c0.85-2.12,2.87-1.71,4.33-1.9
				c8.98-1.16,17.59-3.68,26.09-6.63c0.8-0.28,1.68-0.45,1.74-1.55c7.1,18.05,12.98,36.43,14.38,55.94
				c0.51,7.15-0.13,14.29-0.4,21.43c-0.03,0.84,0.02,1.68,0.03,2.52c0.98,3.03-0.35,5.9-0.7,8.82c-0.28,2.32-1.07,4.56-1.85,6.78
				c-0.89,2.54-0.79,2.7,1.92,2.71c8.73,0.03,17.45-0.01,26.18,0.03c1.36,0.01,2.85-0.31,3.96,0.91c-2.02,0.62-4.1,0.37-6.15,0.38
				c-8.74,0.04-17.48,0.05-26.21-0.01c-1.6-0.01-2.79,0.26-3.88,1.6c-1.74,2.15-4.17,3.12-6.96,3.12
				C835.88,434.87,815.96,434.86,796.04,434.84z"/>
			<path class="st7" d="M899,429.8c-11.35,0-22.7,0-34.55,0c3.29-6.29,3.78-12.86,5.03-19.24c8.19-0.03,16.39,0.03,24.58-0.1
				c7.66-0.13,15.2-1.01,22.24-4.39c5.16-2.48,8.07-6.29,7.55-12.29c-0.22-2.53-0.21-5.06-0.55-7.59
				c-0.86-6.33-3.89-11.3-8.91-15.13c-2.85-2.18-5.9-4.08-9.16-5.54c-15.57-7.02-21.94-27.03-9.15-43.42
				c8.55-10.96,20.46-14.87,33.96-14.42c4.82,0.16,8.5,4.61,8.5,9.61c0.01,5.01-3.57,9.16-8.47,9.67
				c-3.46,0.36-6.96,0.38-10.28,1.59c-4.1,1.5-7.6,3.75-9.65,7.76c-2.5,4.89-1.15,9.03,3.72,11.53c6.14,3.14,11.99,6.71,17,11.51
				c9.11,8.73,11.81,19.92,12.63,31.98c1.42,20.86-10.92,29.92-23.53,34.53C913.2,428.32,906.22,429.69,899,429.8z"/>
			<path class="st9" d="M702.26,434.9c-4.46-0.51-7.23-3.34-9.35-6.95c-2.66-4.53-3.93-9.55-4.52-14.71
				c-0.89-7.8-0.92-15.61,1.57-23.17c1.33-4.02,2.85-8.42,7.92-8.88c5.77-0.53,10.47,1.76,13.48,6.94c0.47,0.8,0.84,1.66,1.39,2.77
				c0.39-1.57,0.66-2.95,1.08-4.28c2.65-8.38,10.39-14.35,19.56-15.13c4.15-0.36,8.26-0.21,12.34,0.67
				c1.67,1.15,0.44,2.39-0.02,3.45c-2.56,5.78-5.04,11.63-6.2,17.83c-2.14,11.52-0.91,22.68,5.04,33.01
				c1.57,2.73,3.89,4.81,6.69,6.32c0.88,0.47,1.99,0.66,2.39,1.76c-0.21,0.63-0.72,0.54-1.15,0.54c-16.46,0.01-32.93,0.02-49.39,0
				C702.79,435.07,702.53,434.99,702.26,434.9z"/>
			<path class="st8" d="M808.37,339.56c-11.95,0.14-23.88-0.01-35.71-2.05c-1.35-0.23-2.62-0.11-3.8,0.64
				c-6.85,6.8-11.83,14.96-16.89,23.07c-2.23,3.57-3.48,7.68-6.25,10.93c0.7,1.37-0.39,2.32-0.87,3.36
				c-5.69,12.36-9.31,25.01-5.9,38.76c2.13,8.57,4.93,16.62,14.7,20.54h-0.09c0.31,0.01,0.62,0.03,0.92,0.03
				c0.6,0.01,1.14,0.1,1.63,0.27c2.37-0.17,4.74,0.06,7.11-0.07c0.61-0.03,1.56,0.46,1.68-0.75c-1.81-2.41-3.46-4.91-4.58-7.74
				c-3.46-8.75-4.43-17.85-3.63-27.15c0.5-5.73,1.56-11.37,4.59-16.42c2.48-4.11,5.89-6.88,10.92-6.84
				c1.91,0.02,2.08-1.03,2.29-2.42c2.29-15.18,16.01-27.19,31.53-27.65c5.49-0.17,5.49-0.17,6.92-5.64
				C811.6,339.19,809.92,339.54,808.37,339.56z"/>
			<path class="st10" d="M712.38,213.91c-3.16,5.92-5.38,12.21-7.26,18.63c-4.12-0.37-7.95-2.17-12.11-2.44
				c-1.5-0.1-2.99-0.33-4.49-0.17c-2.24,0.24-4,2.06-3.99,4.02c0.01,1.96,1.48,3.57,3.74,3.91c4.18,0.62,8.41,0.91,12.41,2.45
				c1.04,0.4,2.21,0.61,2.72,1.81c-0.08,10.23-0.46,20.47,1.67,30.58c0.19,0.91,0.37,1.83,0.56,2.75
				c-5.45,1.51-11.03,2.38-16.66,2.61c-5.85,0.23-10.21-2.67-13.4-7.46c-4.37-6.55-5.84-14.02-6.47-21.63
				c-0.72-8.69,0.17-17.27,3.16-25.54c1.26-3.48,3.01-6.67,5.6-9.37c3.51-3.65,7.79-5.09,12.78-4.57
				C698.02,210.24,705.3,211.59,712.38,213.91z"/>
			<path class="st11" d="M812.94,340.43c-5.52,0-11.05-0.02-16.57,0c-8.12,0.03-16.16-0.81-24.15-2.16
				c-1.1-0.18-2.24-0.08-3.36-0.12c1.73-2.95,4.31-5.12,6.83-7.33c0.84-0.68,1.97,0.13,2.82-0.55c0.58,0.19,1.15,0.37,1.73,0.56
				c1.3,0.45,2.61,0.43,3.92,0.01c0.58,0.19,1.16,0.37,1.74,0.56c2.25,0.45,4.49,0.45,6.74,0c5.48,0.73,10.95,0.92,16.43,0
				c1.93,0.59,3.92,0.11,5.87,0.28c0.67,0.06,1.64-0.32,1.56,0.97C815.31,335.25,814.12,337.84,812.94,340.43z"/>
			<path class="st7" d="M894.48,283.41c-4.01-0.64-7.71-2.29-11.5-3.61c-2.12-0.73-3.13-3.63-2.36-5.66
				c0.98-2.59,3.28-4.03,5.66-3.32c3.68,1.09,7.31,2.33,10.97,3.51C896.65,277.46,895.87,280.53,894.48,283.41z"/>
			<path class="st7" d="M741.8,186.72c2.93,0.05,5.79,0.54,7.95,2.64c2.69,2.62,1.45,7.39-2.22,7.89
				c-5.34,0.73-9.99-1.71-14.44-4.37c-0.24-0.14-0.23-0.68-0.34-1.03C735.57,189.78,738.55,188.02,741.8,186.72z"/>
			<path class="st7" d="M890.48,214.31c-0.15,1.31-1.22,1.5-2.19,1.84c-2.29,0.8-4.58,1.64-6.87,2.45c-2.63,0.93-5.34-0.3-6.46-2.92
				c-1.02-2.39-0.13-4.84,2.47-6.03c2.54-1.17,5.2-2.08,7.81-3.1C887.66,208.67,889.14,211.45,890.48,214.31z"/>
			<path class="st12" d="M756.46,435.25h9.18c-0.24-0.32-0.49-0.63-0.73-0.95c-0.95,0.9-2.13,0.37-3.2,0.49
				c-2,0.23-4.06-0.31-6.05,0.19C755.95,435.05,756.21,435.14,756.46,435.25z"/>
			<path class="st13" d="M778.5,330.28c-0.79,0.93-1.87,0.41-2.82,0.55c0.01-0.19,0.01-0.38,0-0.56
				C776.63,330.27,777.57,330.27,778.5,330.28z"/>
			<path class="st14" d="M816.49,332.65c-1.24-1.3-2.83-0.46-4.24-0.7c-1.06-0.17-2.26,0.4-3.19-0.55c3.06,0.15,6.09-0.18,9.13-0.52
				C817.62,331.48,817.06,332.07,816.49,332.65z"/>
			<path class="st15" d="M737.64,234.16c10.58-0.78,19.66,9.18,19.46,19.4c-0.21,10.85-8.73,19.6-19.5,19.61
				c-10.9,0.01-19.37-8.79-19.62-19.81C717.76,243.72,726.74,233.27,737.64,234.16z"/>
			<path class="st15" d="M815.79,234.16c10.71-0.65,19.93,8.67,19.83,19.33c-0.1,10.68-8.93,19.67-19.5,19.68
				c-11.4,0.02-19.57-10.03-19.68-19.49C796.31,242.95,806.16,233.34,815.79,234.16z"/>
			<path class="st16" d="M776.73,291.77c0.02,1.88,0.07,3.76,0.07,5.64c0.01,5.08,2.53,8.32,7.55,9.63c1,0.26,2.03,0.37,3.05,0.57
				c2.61,0.53,4.34,2.78,4.07,5.26c-0.27,2.49-2.4,4.45-5.05,4.35c-4.64-0.17-8.84-1.76-12.47-4.63c-1.3-1.03-2.03-1.18-3.15,0.21
				c-1.9,2.34-4.54,3.62-7.44,4.29c-2.78,0.63-5.14-0.77-5.94-3.42c-0.76-2.52,0.63-5.03,3.32-5.98c3.55-1.26,6.27-5.05,6.33-8.72
				c0.05-2.72-0.25-5.46,0.28-8.16c0.71-0.35,1.28,0.08,1.84,0.38c1.89,1.02,3.72,1.17,5.56-0.14
				C775.69,290.38,776.48,290.38,776.73,291.77z"/>
			<path class="st10" d="M776.73,291.77c-0.41-0.25-0.64-1.01-1.34-0.4c-2.86,2.46-5.48,1.24-8.06-0.55
				c-2.82-3.61-4.95-7.55-5.18-12.22c-0.18-3.53,1.23-5.18,4.66-5.35c3.47-0.17,6.96-0.18,10.42,0.01c3.2,0.18,4.96,2.71,4.46,5.89
				c-0.59,3.67-1.85,7.08-4.17,10.01C776.88,289.98,776.78,290.84,776.73,291.77z"/>
			<path class="st17" d="M703.39,242.12c-4.77-2.1-9.82-2.98-14.97-3.39c-2.76-0.22-4.84-2.25-4.82-4.85
				c0.02-2.37,2.44-4.79,4.95-4.75c5.73,0.08,11.34,0.87,16.57,3.42C704.54,235.74,703.96,238.93,703.39,242.12z"/>
			<path class="st18" d="M792.63,331.41c-2.25,0.87-4.49,0.88-6.74,0C788.14,331.4,790.38,331.41,792.63,331.41z"/>
			<path class="st19" d="M784.15,330.84c-1.31,0.85-2.61,0.87-3.92-0.01C781.54,330.84,782.85,330.84,784.15,330.84z"/>
			<path class="st7" d="M897.41,240.56c2.9,1.53,5.55,2.43,8.22,3.32c2.94,0.99,4.32,3.31,3.64,5.75c-0.79,2.84-3.28,4.42-6.33,3.66
				c-7.76-1.93-14.77-5.52-21.01-10.45c-3.64-2.87-2.84-7.32,1.56-8.78c6.39-2.11,12.92-3.78,19.67-4.4
				c2.05-0.19,4.05-0.77,6.14-0.57c2.64,0.26,4.94,2.58,4.84,4.97c-0.1,2.36-2.51,4.48-5.07,4.67
				C905.25,239.02,901.44,239.39,897.41,240.56z"/>
			<path class="st20" d="M732.9,251.37c3.73,2.55,6.21,2.7,8.18,0.64c1.93-2.02,1.71-4.48-0.68-7.75c3.8-1.69,8.63,1.22,10.33,3.99
				c2.22,3.61,1.94,8.34-0.77,11.55c-2.79,3.31-7.24,4.41-11.21,2.79C734.42,260.8,732.38,257.01,732.9,251.37z"/>
			<path class="st20" d="M813.27,243.97c-2.51,3.76-2.67,6.22-0.63,8.18c2.01,1.93,4.44,1.72,7.75-0.67
				c1.13,3.82-0.38,7.86-3.78,10.15c-3.65,2.46-8.38,2.22-11.78-0.58c-3.29-2.72-4.42-7.23-2.79-11.21
				C803.82,245.52,807.67,243.45,813.27,243.97z"/>
		</g>
	</g>
</g>
<g>
	<g>
		<g>
			<path class="st6" d="M299.41,276.57c2.2-0.11,4.41,0.04,6.61-0.08c10.63,0.08,21.26,0.02,31.89,0.03c0.42,0,0.85-0.01,1.26-0.14
				c3.16-0.5,5.15-2.47,6.52-5.21c0.35-0.71,0.66-1.43,0.93-2.17c2-5.49,1.92-11.15,1.39-16.83c-0.24-2.6-0.93-5.11-2.42-7.33
				c-1.16-1.74-2.78-2.4-4.84-2.13c-3.19,0.42-5.49,2.05-6.91,4.94c-0.21,0.41-0.34,1.04-0.91,1c-0.57-0.04-0.59-0.68-0.75-1.11
				c-0.11-0.28-0.16-0.59-0.24-0.87c-1.68-6.14-6.97-10.16-13.38-10.21c-2.24-0.02-4.46,0.06-6.69,0.25
				c-1.25-0.3-1.54-1.44-2.03-2.38c-3.61-7.06-7.91-13.64-13.21-19.55c-0.6-0.82-1.25-1.58-1.94-2.33c-0.84-0.9-1.99-1.56-2.39-2.82
				c0.05-0.18,0.14-0.33,0.3-0.42c5.42-1.01,10.8-2.13,16-4c6.65-2.39,12.64-5.91,17.64-10.88c5.07-5.05,8.46-11.16,10.36-18.07
				c0.22-0.8,0.25-1.7,1.04-2.24c0.74-0.22,1.43,0.06,2.14,0.23c2.84,0.68,5.73,0.95,8.62,1.13c3.91,0.25,7.63-2.65,9.58-7.4
				c2.84-6.91,3.3-14.08,2.01-21.39c-0.57-3.22-1.35-6.41-3.19-9.2c-2.15-3.27-4.98-5.54-9.15-5.13c-3.49,0.33-6.97,0.78-10.37,1.71
				c-1.27,0.35-2.52,0.87-3.88,0.86c-1.74-1.34-2.3-3.54-3.79-5.06c-2.83-3.51-6.07-6.56-9.85-9.02c-1.77-1.45-4.08-2.06-5.69-3.76
				c0-1.11,1-1.27,1.68-1.68c3.79-2.24,6.41-5.31,6.98-9.83c0.38-3.06-0.57-5.87-1.6-8.66c-0.17-0.48-0.28-1.2-0.95-1.18
				c-0.51,0.02-0.62,0.68-0.87,1.07c-2.24,3.52-5.29,5.88-9.45,6.81c-1.74,0.39-2.87-0.05-3.79-1.57c-1.52-2.51-3.6-4.54-5.98-6.25
				c-1.28-0.92-1.5-0.82-1.83,0.75c-0.64,3.07-2.1,5.7-4.48,7.71c-4.38,3.69-9.64,5.33-15.21,5.76c-4.63,0.36-9.29,0.41-13.93,0.77
				c-8.33,0.64-16.4,2.37-24.12,5.58c-7.24,3.01-13.38,7.48-18.16,13.75c-1.51,1.58-2.45,3.55-3.74,5.27
				c-0.76,0.54-1.52,0.19-2.26-0.02c-3.67-1.06-7.35-2.06-11.15-2.51c-1.92-0.23-3.83-0.73-5.77-0.5c-4.33,0.52-6.88,3.36-8.5,7.09
				c-3.2,7.37-3.28,15.05-1.91,22.82c0.51,2.88,1.45,5.63,3.06,8.1c2.03,3.12,4.67,5.27,8.64,5.04c4-0.23,7.94-0.81,11.8-1.96
				c0.59-0.17,1.17-0.35,1.77-0.05c1.16,1.76,1.22,3.92,2.12,5.77c2.03,5.94,5.27,11.13,9.71,15.55c4.26,4.23,9.36,7.22,14.83,9.6
				c0.82,0.35,1.78,0.56,1.94,1.67c-0.25,1.49-1.09,2.78-1.44,4.24c-3.24,8.54-6.17,17.18-7.8,26.2
				c-1.16,6.44-1.81,12.91-1.09,19.47c0.19,1.71,0.37,3.49-0.26,5.2c-0.4,0.46-0.96,0.53-1.5,0.51c-6.71-0.12-13.45,0.44-20.14-0.41
				c-3.45-0.43-6.79-1.25-9.83-3.04c-2.72-1.6-4.3-3.85-4.1-7.13c0.06-0.96-0.01-1.94,0.01-2.91c0.15-5.34,2.12-9.73,6.52-12.97
				c2.06-1.52,4.31-2.7,6.54-3.9c7.69-4.13,10.93-12.73,8.01-20.93c-3.67-10.34-14.72-15.55-24.68-14.76
				c-2.78,0.22-4.8,2.6-4.86,5.44c-0.06,3.03,1.79,5.38,4.68,5.77c1.38,0.19,2.76,0.34,4.14,0.51c3.65,0.47,6.71,2.09,8.86,5.12
				c2.3,3.24,1.43,6.84-2,8.8c-0.84,0.49-1.74,0.86-2.58,1.34c-5.71,3.27-10.77,7.18-13.57,13.42c-1.92,4.29-2.55,8.82-2.8,13.43
				c-0.15,2.91,0.03,5.82,1.04,8.6c2.23,6.15,6.91,9.76,12.73,12.15c4.77,1.96,9.79,2.68,14.88,3.05c0.77,0.22,1.56,0.14,2.35,0.14
				c5.87,0.01,11.74,0.01,17.62,0c1.18,0,2.32,0.06,3.19,0.98c1.45,1.54,3.24,1.9,5.28,1.88c8.89-0.05,17.8-0.04,26.7-0.01
				c3.39,0.01,6.78-0.13,10.17,0.11c2.66,1.16,5.25,2.48,8.14,3c0.35,0.06,0.7,0.25,0.62,0.73c-35.5,0-70.99-0.01-106.49,0.03
				c-1.24,0.01-1.49-0.24-1.49-1.49c0.04-61.18,0.04-122.36,0-183.54c-0.01-1.24,0.24-1.49,1.49-1.49
				c61.18,0.04,122.36,0.04,183.54,0c1.24-0.01,1.49,0.24,1.49,1.49c-0.04,61.18-0.04,122.36,0,183.54
				c0.01,1.25-0.24,1.49-1.49,1.49c-23.62-0.05-47.25-0.03-70.87-0.03C295.39,278.28,297.39,277.39,299.41,276.57z"/>
			<path class="st7" d="M287.71,279.94c-2.86-0.89-5.89-1.34-8.36-3.24c-2.46-1.04-3.36-3.18-3.69-5.58
				c-0.29-2.06,0.89-3.63,2.75-4.1c1.7-0.42,3.43,0.48,4.1,2.45c0.58,1.72,1.77,2.49,3.36,2.96c1.82,0.55,3.7,0.59,5.57,0.65
				c1.49,0.05,2.61-0.87,3.4-2.1c0.72-1.12,1.23-2.35,1.69-3.61c1.09-3.06,1.5-6.28,1.5-9.46c0-3.31-0.31-6.66-1.59-9.8
				c-0.95-2.31-2.64-2.85-4.8-1.59c-1.09,0.62-1.81,1.56-2.33,2.7c-1.2,2.64-2.52,3.68-4.3,3.42c-1.93-0.28-2.86-1.49-3.29-4.38
				c-0.12-0.78-0.35-1.53-0.66-2.26c-1.78-4.23-5.26-5.94-9.54-6.49c-5.08-0.66-12.07,1.45-14.1,6.97
				c-0.13,0.34-0.35,0.64-0.57,0.93c-0.95,1.29-2.26,1.57-3.72,1.23c-1.44-0.33-2.3-1.3-2.54-2.75c-0.21-1.29-0.1-2.55,0.58-3.69
				c1.25-2.08,2.68-4.03,4.62-5.54c4.41-3.45,9.45-4.59,14.97-4.5c5.33,0.09,9.79,1.86,13.49,5.66c0.73,0.75,1.34,1.61,2.33,2.53
				c-0.1-5.36-2.33-9.12-6.62-11.67c-3.85-2.3-8.09-2.23-12.35-1.9c-2.49,0.19-4.04-1-4.41-3.47c-0.27-1.8-0.64-3.56-1.21-5.3
				c-0.57-1.76-1.66-2.42-3.42-2.65c-5.54-0.71-10.9-2.23-16.16-4.11c-0.69-0.25-1.65-0.39-1.31-1.56c0.51-1.31,1.04-2.6,1.55-3.9
				c0.85-1.08,1.79-0.3,2.62-0.04c5.97,1.85,12.01,3.27,18.29,3.55c0.5,0.01,0.98,0.04,1.45,0.21c0.64,0.28,1.08,0.77,1.48,1.31
				c0.97,1.66,1.66,3.45,2.39,5.22c1.11,2.94,0.25,3.02,4.27,3.1c9.5,0.19,18.47,7.72,20.31,17.07c0.27,1.38,0.71,2.14,2.23,2.32
				c2.57,0.29,4.45,1.78,5.91,3.84c1.47,2.07,2.24,4.41,2.79,6.86c1.12,5.03,1.25,10.11,0.33,15.15c-0.78,4.29-1.83,8.55-4.93,11.92
				c-0.26,0.28-0.6,0.45-0.92,0.66c-1.49,1.31-3.27,2.12-5.02,2.98C291.81,279.95,289.75,279.95,287.71,279.94z"/>
			<path class="st8" d="M246.03,199.73c-4.34-5.04-6.96-11.01-8.72-17.39c-1.64-5.92-2.46-11.98-2.75-18.09
				c-0.24-5.12-0.38-10.28,0.77-15.37c2.91-12.86,12.33-19.66,23.85-20.6c4.94-0.4,9.9-0.23,14.84,0.35
				c5.67,0.67,11.26,1.72,16.29,4.65c0.76,0.44,1.43,0.55,2.17-0.03c3.47-2.7,7.6-3.6,11.81-4.3c3.47-0.58,6.98-0.55,10.48-0.79
				c5.13-0.35,10.12,0.24,15.1,1.32c1.33,1.55,2.51,3.2,3.26,5.12c0.8,0.34,1.08,1.09,1.41,1.79c1.58,3.33,2.84,6.75,3.68,10.34
				c0.6,2.05,0.77,4.19,1.18,6.28c0.16,6.33,0.33,12.66-0.93,18.92c-0.17,0.83-0.27,1.67-1,2.25c-1.63,8.17-5.52,15.16-11.42,20.94
				c-4.57,4.48-10.01,7.74-16.01,10c-5.7,2.14-11.52,3.82-17.63,4.32c-0.44,0.44-1.03,0.47-1.6,0.53c-0.46,0.12-0.93,0.23-1.41,0.28
				c-0.77,0.06-1.55-0.01-2.32,0.11c-0.49,0.14-0.98,0.26-1.49,0.28c-1.38,0.07-2.77-0.06-4.15,0.08c-3.51,0.49-7.02,0.55-10.53,0
				c-1.96-0.19-4.02,0.26-5.83-0.89c-0.44-0.02-0.89-0.05-1.34-0.06C256.44,208.9,250.71,205.16,246.03,199.73z"/>
			<path class="st9" d="M244.71,206.09c-0.66-0.21-1.3-0.68-2.06-0.3c-0.25-0.87-1.1-0.85-1.73-1.11
				c-11.84-4.99-20.62-12.99-24.91-25.38c0.58-0.71,1.47-0.8,2.26-1.04c1.45-0.42,2.86-0.96,4.28-1.49
				c1.69-0.63,2.38-1.97,1.85-3.38c-0.53-1.43-1.87-2.04-3.58-1.55c-1.39,0.4-2.75,0.92-4.14,1.34c-0.79,0.24-1.58,0.66-2.45,0.29
				c-0.71,0.17-1.41,0.32-2.11,0.51c-3.86,1.09-7.81,1.81-11.8,1.86c-5.22,0.06-8.1-3.32-9.99-7.67c-2.7-6.22-3.11-12.78-2.38-19.42
				c0.53-4.86,1.69-9.55,4.89-13.45c2.14-2.61,4.94-3.83,8.33-3.54c5.38,0.47,10.66,1.47,15.78,3.2c0.56,0.19,1.13,0.58,1.63-0.09
				c1.92,1.07,4.05,1.56,6.09,2.29c1.43,0.51,2.84-0.24,3.41-1.61c0.55-1.31,0.05-2.52-1.38-3.31c-0.85-0.47-1.8-0.69-2.7-1.04
				c-0.77-0.3-1.69-0.39-2.04-1.33c0.12-0.26,0.21-0.55,0.39-0.78c4.84-6.14,11.05-10.44,18.21-13.41
				c10.09-4.18,20.7-5.71,31.54-5.94c5.85-0.12,11.62-0.48,16.97-3.15c4.8-2.4,8.36-5.78,8.84-11.49c0.12-1.44,0.82-0.83,1.41-0.46
				c3.07,1.94,5.6,4.43,7.46,7.55c0.5,0.84,0.98,1.23,2,1.05c4.51-0.78,7.95-3.06,10.27-7.02c0.38-0.66,0.47-1.49,1.15-1.99
				c4.92,8.08,4.23,16.98-4.88,21.87c-0.43,0.23-1.13,0.26-1.11,1.02c-1.13,0.59-2.41,0.78-3.59,1.24c-1.34,0.53-2.11,1.76-1.9,2.96
				c0.21,1.25,1.3,2.14,2.73,2.23c0.42,0.03,0.86,0.01,1.27-0.09c2.6-0.64,5.13-1.44,7.33-3.04c3.8,2.46,7.03,5.54,9.84,9.07
				c-0.21,0.44-0.59,0.38-0.94,0.3c-8.21-1.85-16.45-1.47-24.68-0.29c-4.32,0.62-8.59,1.56-11.96,4.67
				c-0.61,0.56-1.02,0.37-1.57-0.02c-2.26-1.58-4.82-2.5-7.45-3.23c-7.59-2.12-15.35-2.5-23.17-2.2
				c-13.23,0.51-23.35,9.68-24.72,22.82c-1.23,11.73-0.15,23.31,3.63,34.53c2.66,7.86,6.97,14.59,14.08,19.26
				c3.28,2.15,6.94,3.33,10.63,4.46C257.2,209.6,250.92,208.06,244.71,206.09z"/>
			<path class="st9" d="M240.92,276.74c-1.79,0-3.36-0.62-4.48-2.01c-0.7-0.86-1.47-1.04-2.5-1.03c-5.61,0.04-11.24,0.03-16.86,0.01
				c-1.32-0.01-2.66,0.15-3.96-0.24c0.71-0.78,1.67-0.58,2.55-0.59c5.61-0.03,11.22,0,16.84-0.02c1.74-0.01,1.81-0.11,1.23-1.74
				c-0.5-1.43-1.01-2.87-1.19-4.36c-0.23-1.88-1.08-3.72-0.45-5.67c0.01-0.54,0.04-1.08,0.02-1.62c-0.17-4.59-0.59-9.18-0.26-13.78
				c0.9-12.55,4.68-24.37,9.25-35.98c0.04,0.71,0.6,0.82,1.12,1c5.47,1.9,11,3.52,16.78,4.26c0.94,0.12,2.24-0.14,2.78,1.22
				c0.92,2.3,1.7,4.64,1.9,7.13c0.17,2.11,1.72,3.2,3.8,3c4.3-0.41,8.55-0.4,12.51,1.8c4.86,2.7,6.88,7.02,7.25,12.34
				c0.02,0.32-0.1,0.62-0.39,0.76c-0.6,0.27-0.7-0.33-0.92-0.62c-1.63-2.21-3.45-4.22-5.9-5.52c-6.82-3.62-13.75-3.17-20.59-0.18
				c-3.58,1.57-6.18,4.39-8.01,7.83c-1.16,2.17-0.53,4.57,1.25,5.36c1.97,0.87,3.43,0.06,4.57-2.46c0.71-1.56,1.81-2.82,3.18-3.88
				c2.24-1.73,4.83-2.49,7.54-2.76c6.02-0.6,13.58,1.83,14.29,10.12c0.11,1.29,0.68,2.36,2.08,2.92c1.29,0.51,2.28,0.07,3.2-0.62
				c0.8-0.59,0.98-1.62,1.33-2.52c0.93-2.35,3.04-3.7,5.57-3.47c2.21,0.21,2.18,2.27,2.88,3.7c0.1,0.21,0.12,0.46,0.17,0.7
				c0.75,3.66,1.23,7.3,0.79,11.09c-0.42,3.53-1.16,6.88-2.83,10.01c-0.86,1.63-2.24,2.62-4.01,2.75c-1.42,0.1-2.89-0.13-4.3-0.42
				c-2.38-0.49-4.68-1.04-5.31-4.06c-0.28-1.37-1.67-2.05-3.16-1.81c-1.63,0.25-2.65,1.51-2.65,3.14c0,2.63,1.45,4.51,3.27,6.18
				C266.52,276.71,253.71,276.72,240.92,276.74z"/>
			<path class="st7" d="M199.63,270.92c-8.11-2.96-16.05-8.79-15.13-22.21c0.53-7.76,2.26-14.95,8.12-20.57
				c3.22-3.09,6.98-5.38,10.93-7.4c3.13-1.61,4-4.27,2.39-7.42c-1.32-2.58-3.57-4.03-6.21-4.99c-2.14-0.78-4.39-0.79-6.61-1.02
				c-3.15-0.33-5.45-3-5.45-6.22c0-3.22,2.37-6.08,5.47-6.18c8.68-0.29,16.34,2.23,21.84,9.27c8.23,10.54,4.13,23.41-5.88,27.93
				c-2.1,0.94-4.06,2.16-5.89,3.56c-3.23,2.46-5.18,5.66-5.73,9.73c-0.22,1.63-0.21,3.25-0.35,4.88c-0.33,3.86,1.54,6.31,4.86,7.9
				c4.53,2.17,9.38,2.74,14.3,2.82c5.27,0.08,10.54,0.05,15.81,0.06c0.8,4.1,1.12,8.33,3.24,12.37c-7.62,0-14.92,0-22.22,0
				C208.47,273.39,203.98,272.5,199.63,270.92z"/>
			<path class="st9" d="M339.12,276.85c-10.59,0.01-21.18,0.01-31.77,0c-0.28,0-0.6,0.06-0.74-0.35c0.26-0.71,0.97-0.83,1.54-1.13
				c1.8-0.97,3.29-2.31,4.3-4.06c3.83-6.64,4.62-13.82,3.24-21.23c-0.75-3.99-2.34-7.75-3.99-11.47c-0.3-0.68-1.09-1.48-0.01-2.22
				c2.62-0.57,5.27-0.66,7.94-0.43c5.9,0.5,10.88,4.34,12.58,9.73c0.27,0.86,0.44,1.74,0.69,2.75c0.35-0.71,0.59-1.27,0.89-1.78
				c1.94-3.33,4.96-4.8,8.67-4.46c3.26,0.3,4.24,3.13,5.09,5.71c1.6,4.86,1.58,9.89,1.01,14.9c-0.38,3.32-1.2,6.55-2.91,9.46
				c-1.36,2.32-3.15,4.14-6.01,4.47C339.48,276.79,339.31,276.85,339.12,276.85z"/>
			<path class="st8" d="M338.65,277.02c-10.94-0.02-21.88-0.04-32.82-0.06c-1.79-0.26-3.59-0.03-5.38-0.13
				c-0.39-0.02-1,0.3-1.08-0.48c1.16-1.55,2.23-3.16,2.95-4.98c2.23-5.63,2.85-11.48,2.33-17.46c-0.32-3.69-1-7.31-2.95-10.56
				c-1.6-2.64-3.79-4.42-7.02-4.4c-1.23,0.01-1.34-0.66-1.47-1.56c-1.47-9.76-10.3-17.49-20.28-17.78
				c-3.53-0.11-3.53-0.11-4.45-3.63c0.86-0.8,1.94-0.57,2.94-0.56c7.69,0.09,15.36-0.01,22.97-1.32c0.87-0.15,1.69-0.07,2.44,0.41
				c4.41,4.37,7.61,9.62,10.86,14.84c1.43,2.3,2.24,4.94,4.02,7.03c-0.45,0.88,0.25,1.49,0.56,2.16c3.66,7.95,5.99,16.09,3.79,24.93
				c-1.37,5.51-3.17,10.69-9.45,13.21c1.14,0,1.85,0,2.56,0c10.16,0.02,20.33,0.04,30.49,0.06
				C339.37,277.02,339,277.03,338.65,277.02z"/>
			<path class="st10" d="M347.12,131.76c3.21-0.33,5.96,0.59,8.22,2.94c1.67,1.74,2.79,3.79,3.6,6.03
				c1.92,5.32,2.5,10.84,2.03,16.43c-0.41,4.89-1.35,9.7-4.16,13.91c-2.05,3.08-4.86,4.95-8.62,4.8c-3.62-0.15-7.21-0.71-10.72-1.68
				c0.12-0.59,0.24-1.18,0.36-1.77c1.37-6.5,1.13-13.09,1.07-19.67c0.33-0.77,1.08-0.91,1.75-1.16c2.57-0.99,5.29-1.18,7.98-1.58
				c1.45-0.22,2.4-1.25,2.41-2.51s-1.13-2.43-2.57-2.59c-0.96-0.1-1.92,0.05-2.89,0.11c-2.68,0.17-5.14,1.33-7.79,1.57
				c-1.21-4.13-2.64-8.17-4.67-11.98C337.69,133.11,342.38,132.24,347.12,131.76z"/>
			<path class="st11" d="M266.17,210.97c-0.05-0.83,0.57-0.59,1-0.62c1.25-0.11,2.53,0.2,3.78-0.18c3.52,0.59,7.04,0.47,10.57,0
				c1.45,0.29,2.89,0.29,4.33,0c0.37-0.12,0.75-0.24,1.12-0.36c0.84,0.27,1.69,0.28,2.52-0.01c0.37-0.12,0.74-0.24,1.11-0.36
				c0.55,0.44,1.27-0.08,1.81,0.35c1.62,1.42,3.28,2.82,4.39,4.71c-0.72,0.03-1.45-0.04-2.16,0.08c-5.14,0.87-10.31,1.41-15.53,1.39
				c-3.55-0.01-7.11,0-10.66,0C267.71,214.31,266.94,212.65,266.17,210.97z"/>
			<path class="st7" d="M214.24,173.46c2.35-0.76,4.69-1.56,7.06-2.26c1.53-0.46,3.01,0.47,3.64,2.14c0.5,1.31-0.15,3.17-1.52,3.64
				c-2.44,0.85-4.82,1.91-7.4,2.32C215.13,177.45,214.63,175.48,214.24,173.46z"/>
			<path class="st7" d="M320.04,120.42c-0.07,0.23-0.06,0.57-0.22,0.66c-2.86,1.71-5.85,3.28-9.29,2.81
				c-2.36-0.32-3.16-3.39-1.43-5.07c1.39-1.35,3.23-1.67,5.11-1.7C316.31,117.95,318.23,119.09,320.04,120.42z"/>
			<path class="st7" d="M221.96,129.87c1.68,0.66,3.39,1.24,5.02,1.99c1.67,0.77,2.24,2.34,1.59,3.88
				c-0.72,1.69-2.46,2.48-4.15,1.88c-1.47-0.52-2.95-1.06-4.42-1.58c-0.62-0.22-1.31-0.34-1.41-1.18
				C219.46,133.02,220.41,131.23,221.96,129.87z"/>
			<path class="st12" d="M298.89,276.96c0.15-0.21,0.32-0.41,0.47-0.61c0.61,0.58,1.37,0.24,2.06,0.32c1.46,0.17,2.97-0.31,4.41,0.3
				C303.5,276.96,301.19,276.96,298.89,276.96z"/>
			<path class="st13" d="M292.43,209.44c-0.01,0.12-0.01,0.24,0,0.36c-0.61-0.09-1.31,0.24-1.81-0.35
				C291.21,209.44,291.82,209.44,292.43,209.44z"/>
			<path class="st14" d="M265.09,209.84c1.96,0.22,3.9,0.43,5.87,0.33c-0.6,0.61-1.37,0.24-2.05,0.35
				c-0.91,0.15-1.93-0.39-2.73,0.45C265.81,210.6,265.45,210.22,265.09,209.84z"/>
			<path class="st15" d="M329.54,159.98c-0.16,7.09-5.61,12.75-12.62,12.74c-6.93-0.01-12.41-5.63-12.54-12.61
				c-0.13-6.57,5.71-12.98,12.52-12.48C323.9,147.06,329.68,153.78,329.54,159.98z"/>
			<path class="st15" d="M279.08,160.18c-0.07,6.08-5.33,12.55-12.66,12.54c-6.8-0.01-12.48-5.79-12.54-12.66
				c-0.06-6.86,5.87-12.85,12.75-12.43C272.82,147.1,279.16,153.28,279.08,160.18z"/>
			<path class="st16" d="M293.03,184.22c1.18,0.84,2.36,0.75,3.58,0.09c0.36-0.19,0.73-0.47,1.18-0.24c0.34,1.74,0.15,3.5,0.18,5.25
				c0.04,2.36,1.79,4.8,4.07,5.61c1.73,0.61,2.62,2.23,2.14,3.85c-0.51,1.7-2.03,2.6-3.82,2.2c-1.87-0.43-3.56-1.25-4.79-2.76
				c-0.72-0.89-1.19-0.8-2.03-0.14c-2.33,1.85-5.04,2.87-8.02,2.98c-1.7,0.06-3.07-1.2-3.25-2.8c-0.17-1.6,0.94-3.04,2.62-3.38
				c0.66-0.13,1.32-0.2,1.96-0.37c3.23-0.84,4.85-2.93,4.86-6.19c0-1.21,0.03-2.42,0.05-3.63
				C291.91,183.79,292.42,183.79,293.03,184.22z"/>
			<path class="st10" d="M291.24,183c-1.49-1.88-2.3-4.08-2.68-6.44c-0.32-2.05,0.81-3.67,2.87-3.79c2.23-0.12,4.47-0.12,6.7-0.01
				c2.21,0.11,3.11,1.17,3,3.44c-0.15,3-1.52,5.54-3.33,7.86c-1.66,1.15-3.34,1.94-5.18,0.35c-0.45-0.39-0.6,0.1-0.86,0.26
				C291.72,184.08,291.66,183.53,291.24,183z"/>
			<path class="st17" d="M337.81,146.59c3.36-1.64,6.97-2.15,10.66-2.2c1.61-0.03,3.17,1.53,3.18,3.06c0.01,1.67-1.32,2.98-3.1,3.12
				c-3.31,0.26-6.56,0.83-9.63,2.18C338.56,150.7,338.18,148.64,337.81,146.59z"/>
			<path class="st18" d="M285.86,210.18c-1.45,0.57-2.89,0.56-4.33,0C282.97,210.18,284.41,210.17,285.86,210.18z"/>
			<path class="st19" d="M289.5,209.8c-0.84,0.57-1.68,0.55-2.52,0.01C287.82,209.81,288.66,209.81,289.5,209.8z"/>
			<path class="st7" d="M206.64,150.57c-1.65-0.12-3.2-1.49-3.26-3c-0.06-1.54,1.41-3.03,3.11-3.2c1.34-0.13,2.63,0.24,3.95,0.37
				c4.34,0.4,8.54,1.47,12.65,2.83c2.83,0.94,3.34,3.8,1,5.65c-4.01,3.17-8.52,5.48-13.51,6.72c-1.96,0.49-3.56-0.53-4.07-2.35
				c-0.44-1.57,0.45-3.06,2.34-3.7c1.72-0.57,3.42-1.15,5.29-2.14C211.54,150.99,209.09,150.75,206.64,150.57z"/>
			<path class="st20" d="M316.18,165.91c-2.55,1.04-5.42,0.33-7.21-1.79c-1.74-2.06-1.92-5.11-0.5-7.43
				c1.09-1.78,4.2-3.65,6.64-2.57c-1.54,2.1-1.68,3.69-0.44,4.98c1.27,1.32,2.86,1.23,5.26-0.41
				C320.28,162.32,318.97,164.76,316.18,165.91z"/>
			<path class="st20" d="M275.47,157.71c1.05,2.56,0.32,5.46-1.79,7.21c-2.19,1.8-5.23,1.96-7.58,0.37
				c-2.19-1.47-3.16-4.07-2.43-6.53c2.13,1.54,3.69,1.67,4.98,0.43c1.31-1.26,1.21-2.84-0.41-5.26
				C271.85,153.6,274.33,154.93,275.47,157.71z"/>
		</g>
	</g>
</g>
</svg>
