<?xml version="1.0" encoding="utf-8"?>
<!-- Generator: Adobe Illustrator 24.0.1, SVG Export Plug-In . SVG Version: 6.00 Build 0)  -->
<svg version="1.1" id="Layer_1" xmlns="http://www.w3.org/2000/svg" xmlns:xlink="http://www.w3.org/1999/xlink" x="0px" y="0px"
	 viewBox="0 0 612 792" enable-background="new 0 0 612 792" xml:space="preserve">
<g>
	<g>
		<path fill="#82D2FB" d="M322.94,140.08c4.91,2.18,10.29,1.87,15.43,2.76c35.43,6.11,66.51,21.17,93.64,44.65
			c10.21,8.84,19.57,18.43,27.44,29.44c0.83,1.16,2.25,1.91,3.39,2.85c11.85,14.47,20.07,30.98,26.83,48.26
			c1.35,3.45,3.88,6.76,2.69,10.9c-5.9,3.07-11,7.11-15.16,12.35c-0.72,0.9-1.82,1.52-3,0.44c-3.31-6.21-4.62-13.14-6.78-19.74
			c-5.51-16.88-16.51-27.93-32.84-34.45c-26.73-10.67-54.39-17.58-82.92-21.02c-16.99-2.05-34.05-3.34-51.19-3.06
			c-3.41-0.3-6.92,0.6-10.24-0.8c-4.24-11.41-6.98-23.06-6.76-35.38c0.17-9.47,2.81-17.99,7.98-25.83
			c3.38-5.13,7.64-9.17,13.47-11.37c1.67,0,3.33,0,5,0c2.67,0.84,5.33,0.84,8,0C319.61,140.08,321.28,140.08,322.94,140.08z"/>
		<path fill="#61B5FE" d="M304.95,140.08c-5.23,4.73-10.78,8.94-14.41,15.4c-5.95,10.6-6.13,21.77-5.21,33.29
			c0.63,7.95,4.95,15.15,4.62,23.28c-2.67,2.06-5.88,2.13-9,2.3c-37.39,2.04-73.41,10.04-107.97,24.54
			c-13.28,5.57-22.47,15.01-27.86,28.36c-3.24,8.03-5.28,16.46-8.54,24.46c-1.66,1.34-2.87,0.11-3.69-0.98
			c-3.33-4.4-7.32-7.82-12.72-9.41c-0.43-0.13-0.64-0.71-0.84-1.16c0.69-8.3,4.53-15.58,7.81-22.96
			c4.79-10.79,10.29-21.24,17.12-30.95c2.11-3,4.21-5.95,7.15-8.19c30.56-38.89,69.46-64.56,118.21-74.66
			c6.09-1.26,12.43-1.06,18.33-3.33C293.62,140.08,299.28,140.08,304.95,140.08z"/>
		<path fill="#3957C8" d="M411.99,627.86c-26.44,12.74-54.27,20.45-83.51,23.06c-0.93,0.08-2.05-0.25-2.54,1c-1,0-2,0-3,0
			c-0.55-0.62-1.3-0.49-2-0.52c-0.7,0.02-1.45-0.1-2,0.52c-5,0-10,0-15,0c-2.67-0.84-5.33-0.84-8,0c-1.33,0-2.67,0-4,0
			c-0.67-0.63-1.33-0.63-2,0c-1.67,0-3.33,0-5,0c-5.71-2.33-11.89-1.86-17.82-2.96c-14.33-2.65-28.58-5.51-42.14-11.06
			c-3.87-8.43-1.56-19.64,5.62-27.28c0.52-0.38,1.08-0.64,1.7-0.83c2.63-0.64,5.3-0.46,7.96-0.46
			c52.42-0.01,104.83-0.01,157.25-0.01c1.16,0,2.33-0.01,3.49,0.02C411.26,609.66,416.4,618.32,411.99,627.86z"/>
		<path fill="#97D9FB" d="M317.94,140.08c-2.67,1.57-5.33,1.53-8,0C312.61,140.08,315.28,140.08,317.94,140.08z"/>
		<path fill="#4C5CBB" d="M295.95,651.92c2.67-1.57,5.33-1.53,8,0C301.28,651.92,298.61,651.92,295.95,651.92z"/>
		<path fill="#9987AD" d="M289.95,651.92c0.67-1.18,1.33-1.09,2,0C291.28,651.92,290.62,651.92,289.95,651.92z"/>
		<path fill="#8C7EAC" d="M318.94,651.92c0.42-0.89,1.19-0.98,2.04-0.87c0.3,0.21,0.39,0.4,0.28,0.59
			c-0.11,0.18-0.21,0.28-0.32,0.28C320.28,651.92,319.61,651.92,318.94,651.92z"/>
		<path fill="#A08FB3" d="M320.94,651.92c0-0.29,0.02-0.58,0.04-0.87c0.83-0.1,1.61-0.1,1.96,0.87
			C322.28,651.92,321.61,651.92,320.94,651.92z"/>
		<path fill="#EDC607" d="M151.41,218.07c-13.25,18.35-23.94,38.02-30.92,59.62c-0.25,0.78-0.35,1.6-0.52,2.41
			c-0.54,1.35-1.66,2.08-2.92,2.52c-5.37,1.9-7.37,6.26-8.54,11.34c-2.68,11.65-4.49,23.43-5.42,35.35
			c-1.32,7.26-0.93,14.61-0.53,21.86c0.61,11.26,1.79,22.49,4.1,33.58c1.21,5.81,3.75,10.24,9.66,12.14
			c2.17,1.11,2.68,3.24,3.29,5.33c11.08,37.5,31.52,69.07,60.44,95.26c1.11,1,2.4,1.86,2.42,3.59c-0.41,1.88-2.07,2.47-3.47,3.3
			c-9.27,5.52-15.73,16.51-10.71,28.96c0.61,1.51,1.41,3.04,0.97,4.79c-4.99,4.4-11.57,5.47-17.38,8.13
			c-10.23,4.68-20.75,8.74-31.1,13.15c-1.8,0.77-3.64,1.76-5.69,0.71c-23-27.96-39.12-59.58-46.9-94.82
			c-20.44-92.71,3.95-172.31,71.98-238.48C143.54,223.52,146.66,219.68,151.41,218.07z"/>
		<path fill="#FB5D1F" d="M115.09,560.1c17.95-7.39,35.9-14.78,53.84-22.17c1.6-0.36,2.49,0.79,3.33,1.75
			c4.07,4.62,9.38,6.65,15.24,7.84c23.52,4.78,47.2,8.31,71.14,10.1c0.83,0.06,1.65,0.21,2.42,0.53c2.95,2.46,0.99,4.58-0.82,6.14
			c-8.39,7.21-16.38,14.92-25.42,21.37c-0.49,0.22-1,0.36-1.53,0.45c-9.79,0.43-19.59,0.02-29.38,0.22
			c-14.18,0.29-24.77,6.45-31.26,19.29c-0.84,1.67-1.03,4-3.53,4.38C148.37,596.34,130.15,579.93,115.09,560.1z"/>
		<path fill="#EDC607" d="M169.11,610.01c4.96-13.48,14.2-22.37,28.54-24.59c6.97-1.08,14.21-0.41,21.33-0.45
			c4.97-0.03,9.94,0.09,14.91,0.14c0.44,1.5-0.46,2.55-1.34,3.49c-4.32,4.61-3.97,9.73-1.8,15.11c0.91,2.25,2.23,4.52,0.28,6.9
			l-0.14,0.39c-1.8,1.56-4.01,1.39-6.15,1.4c-6.47,0.05-12.93-0.06-19.4,0.04c-6.93,0.11-8.77,1.71-9.94,8.4
			c-0.25,1.45-0.23,3.03-1.81,3.85C185,620.52,176.68,615.9,169.11,610.01z"/>
		<path fill="#1D319A" d="M193.59,624.7c0.09-1.48,0.21-2.97,0.26-4.45c0.23-5.91,3.42-9.31,9.21-9.36
			c9.27-0.07,18.55,0.06,27.83,0.11c-1.46,3.96-5.58,6.6-5.76,11.12c-0.21,5.25-0.11,10.52-0.14,15.78
			C213.86,635.07,203.71,629.93,193.59,624.7z"/>
		<path fill="#EDC607" d="M491.81,279.08c-2.87-12.17-8.36-23.28-14.06-34.28c-3.73-7.21-8.1-14.06-12.71-20.75
			c-0.89-1.29-2.46-2.34-2.18-4.27c9.73,6.31,17.44,14.86,25.07,23.38c33.07,36.93,53.79,79.9,60.38,129.06
			c9.35,69.72-7.63,132.56-51.47,187.89c-1.62,0.97-3.17,0.5-4.75-0.17c-15.13-6.37-30.31-12.6-45.39-19.08
			c-1.51-0.65-3.15-1.13-4.04-2.72c-0.37-2.14,0.93-3.83,1.57-5.68c3.82-11.06-0.33-21.99-10.58-27.7
			c-1.56-0.87-3.45-1.41-4.05-3.44c0.76-2.95,3.22-4.61,5.26-6.46c13.91-12.57,25.66-26.9,35.53-42.82
			c8.45-13.64,15.24-28.02,20.16-43.31c1.11-3.44,1.66-7.17,4.24-10.02c7.11-2.48,9.94-7.87,11.3-14.99
			c3.7-19.39,4.33-38.87,2.86-58.48c-0.81-10.28-2.61-20.4-4.78-30.48c-1.4-6.53-3.65-12.14-11.02-13.85
			C492.36,280.72,491.75,280.08,491.81,279.08z"/>
		<path fill="#FC7E31" d="M443,537.87c16.98,7.18,33.96,14.36,50.95,21.52c0.9,0.38,1.92,0.48,2.88,0.72
			c-16.47,21.17-36.27,38.64-58.82,53.07c-2.83-0.03-3.39-2.35-4.19-4.29c-6.36-15.36-18.14-22.38-34.44-22.39
			c-51.95-0.03-103.91,0.01-155.86-0.05c-2.91,0-6.05,0.76-8.58-1.56c7.89-6.92,15.7-13.93,23.72-20.7
			c1.77-1.49,2.97-2.97,3.26-5.21c0.22-0.21,0.43-0.42,0.64-0.63c3.78-1.77,7.56-0.06,11.31,0.13c24.6,1.27,49.15,0.9,73.74-0.83
			c24.45-1.72,48.63-5.03,72.71-9.38c7.49-1.35,14.65-3.21,20.02-9.14C441.01,538.39,441.96,537.96,443,537.87z"/>
		<path fill="#F9CD7A" d="M234.94,584.89c54.61,0.03,109.23,0.31,163.84-0.04c17.7-0.11,32.86,9.68,37.18,25.67
			c0.32,1.2,0.9,2.13,2.05,2.65c-7.86,6.33-17.37,9.76-26.02,14.69c0.55-17.27-3.61-17.25-17.82-17.21
			c-54.38,0.13-108.76-0.01-163.14-0.05c0-1.64,0.23-3.3-0.67-4.82c-4.7-7.9-3.08-14.71,3.53-20.68
			C234.24,585.04,234.59,584.97,234.94,584.89z"/>
		<path fill="#DFF8FD" d="M300.97,212.14c40.13-0.15,79.43,5.13,117.55,17.99c8.82,2.97,17.56,6.19,25.82,10.58
			c10.11,5.37,17.15,13.48,21.59,23.95c3.77,8.89,6.68,18.06,9.1,27.4c0.66,2.64-1.23,4.33-2.45,6.19
			c-5.39,8.22-9.24,17.07-11.26,26.71c-3.32,19.42,0.4,37.39,11.12,53.91c1,1.54,2,3.07,2.44,4.89c0.57,2.9-0.43,5.6-1.15,8.32
			c-9.69,36.51-32.49,62.35-65.46,79.65c-26.71,14.01-55.36,21.6-85.29,24.68c-17.49,1.8-34.84,1.46-52-2.82
			c-8.75-10.04-4.9-23.03,4.28-28.04c6.69-0.23,13.2,1.29,19.79,2.04c9.83,1.12,19.54,0.22,29.24-1.08
			c22.35-3,44.08-8.25,64.43-18.3c0.95-0.51,1.93-0.97,2.94-1.36c26.23-12.68,44.93-31.95,53.22-60.46
			c5.08-17.48,7.85-35.27,7.72-53.5c-0.02-2.17-0.05-4.32-0.73-6.4c-0.96-16.93-4.84-33.19-11.06-48.95
			c-2.73-6.92-7.43-11.56-14.32-14.37c-27.32-11.14-55.64-18-85-20.89c-14.1-1.39-28.18-2.02-42.33-1.83
			c-2.47,0.03-5.01,0.32-7.35-0.92c-5.88-6.35-7.94-13.6-5.1-21.95c1.18-3.46,3.26-5.54,7.38-5.08
			C296.34,212.74,298.73,213.04,300.97,212.14z"/>
		<path fill="#B8E8FC" d="M300.97,212.14c-1.37,1.39-3.12,0.85-4.72,0.88c-6.32,0.12-8.59,2.76-9.42,9.24
			c-0.84,6.54,2.65,11.39,5.18,16.69c-1.08,1.46-2.83,1.5-4.34,2.05c-20.16,0.99-40.1,3.66-59.73,8.39
			c-15.4,3.71-30.45,8.5-45.05,14.73c-7.44,3.17-11.09,9.16-13.71,16.25c-4.58,12.4-7.75,25.13-9.2,38.27
			c-1.28,13.45-1.5,26.92,0.44,40.31c2.23,15.37,5.74,30.39,12.69,44.49c7.61,15.44,19.23,27.05,33.49,36.21
			c4.6,2.95,9.12,6.16,14.37,8c0.51,0.11,1,0.28,1.48,0.5c13.38,7.15,27.83,11.21,42.5,14.59c3.04,0.7,6.24,0.83,9.08,2.34
			c0.46,0.3,0.75,0.71,0.88,1.24c-8.56,7.78-9.66,16.65-3.88,26.53c-0.32,0.44-0.73,0.72-1.25,0.86
			c-14.16-1.56-27.72-5.63-41.05-10.38c-18.77-6.69-36.37-15.64-51.81-28.5c-21.38-17.82-34.82-40.43-41.11-67.42
			c-0.23-0.97-0.41-1.96-0.31-2.97c0.66-2.65,2.46-4.67,3.85-6.91c9.8-15.68,13.29-32.67,10.6-50.94
			c-2.02-10.38-6.03-19.93-11.9-28.72c-1.16-1.74-2.83-3.36-2.22-5.81c2.14-9.76,5.39-19.17,9.35-28.31
			c6.54-15.09,18.91-23.26,33.79-28.92c22.4-8.53,45.38-14.74,69-18.47c10.78-1.7,21.62-3.27,32.59-3.36
			c3.13-0.03,6.26-0.61,9.39-0.94C293.62,212.08,297.3,212.11,300.97,212.14z"/>
		<path fill="#61B5FE" d="M460.17,324.13c2.46-11.84,8.16-22.19,14.86-32.07c4.97-5.12,8.66-11.9,16.77-12.97
			c8.3,0.99,11.85,6.19,13.39,13.97c2.08,10.53,4.64,20.96,4.87,31.76c1.27,4.32-0.6,7.11-4.06,9.62c-13.12,9.52-31,7.89-42-3.99
			C462.27,328.59,461.08,326.46,460.17,324.13z"/>
		<path fill="#5293E4" d="M135.82,292.05c6.61,9.73,12.25,19.92,14.84,31.55c0.18,0.8,0.19,1.63,0.28,2.44
			c-2.38,6.49-7.83,9.81-13.68,12.12c-11.49,4.53-22.35,2.87-32.15-4.8c-1.45-1.14-2.58-2.56-3.15-4.35
			c0.43-13.27,2.95-26.21,6.15-39.03c1.53-6.15,6.39-8.41,11.87-9.87C127.34,281.32,131.32,287.02,135.82,292.05z"/>
		<path fill="#61B5FE" d="M136.05,384.98c3.63,10.99,6.67,22.18,12.1,32.52c11.91,22.68,29.87,39.21,51.98,51.54
			c20.78,11.59,43.09,18.83,66.45,23.02c1.14,0.2,2.23,0.62,3.35,0.94c0.56,0.65,1.01,1.46,0.77,2.25
			c-1.4,4.49-1.42,9.03-0.76,13.63c0.12,0.81-0.26,1.61-0.76,2.3c-0.94,0.82-2.1,1.02-3.29,1.17c-16.95-1.02-33.75-3.27-50.51-5.92
			c-10.16-1.6-20.12-4.77-30.59-4.24c-1,0.05-1.96-0.35-2.67-1.16c-27.06-23.65-47.22-52.08-59.48-85.96
			c-2.03-5.6-3.76-11.31-5.62-16.97c7.11-1.49,11.51-6.75,16.16-11.65C133.94,385.66,134.58,384.48,136.05,384.98z"/>
		<path fill="#FC7E31" d="M182.12,501.03c12.19-1.84,23.67,2.5,35.41,4.29c16.11,2.46,32.27,4.27,48.47,5.82
			c2.29,0.48,3.15,1.66,1.82,3.85c-0.69,1.14-1.59,2.14-2.58,3c-10.64,9.25-11.46,21.08-4.47,33.66c1.24,2.22,3.3,4.42,1.22,7.25
			c0,0-0.07,0.07-0.07,0.08c-18.84-0.52-37.39-3.49-55.93-6.55c-6.01-0.99-11.94-2.55-17.97-3.38c-7.98-1.1-14.39-4.56-19.1-11.13
			C161.58,524.37,164.84,509.7,182.12,501.03z"/>
		<path fill="#4374D2" d="M136.05,384.98c-2.59,2.75-5.28,5.41-7.75,8.27c-3.01,3.49-6.6,5.37-11.28,4.86
			c-5.66-0.44-9.55-3.6-10.76-8.85c-4.42-19.19-6.1-38.65-4.83-58.34c0.04-0.64,0.35-1.27,0.53-1.91
			c6.92,6.37,14.53,10.58,24.49,10.15c9.31-0.41,16.53-4.06,22.24-11.2c0.6-0.76,1.49-1.28,2.25-1.92
			c3.08,14.83,0.74,28.97-5.33,42.66C143.04,374.49,139.46,379.69,136.05,384.98z"/>
		<path fill="#FB9849" d="M262,558.91c0.32-2.32-0.9-4.06-1.97-5.96c-5.63-9.96-7.81-20.14-0.78-30.36c1.85-2.7,4.42-4.94,6.84-7.2
			c1.71-1.6,2.01-2.87-0.09-4.24c0.98-0.06,1.96-0.13,2.94-0.19c7.12-1.14,14.28-0.76,21.38-0.19c10.82,0.87,21.58,0.69,32.41,0.02
			c11.46-0.71,22.92-1.13,34.38-2.09c19.62-1.65,38.99-4.89,58.33-8.42c4.8-0.88,9.81-2.21,14.45,0.89
			c4.53,2.88,9.62,4.75,12.78,9.75c5.75,9.09,5.75,17.91,0.33,26.97c-5.25,8.22-13.69,10.52-22.5,11.96
			c-20.2,3.3-40.34,6.74-60.81,8.3c-21.16,1.61-42.3,3.1-63.51,2.72C284.78,560.65,273.39,559.59,262,558.91z"/>
		<path fill="#82D2FB" d="M429.88,501.15c-11.85-1.61-23.01,2.51-34.43,4.28c-21.02,3.26-42.12,5.49-63.36,6.61
			c-17.94,0.95-35.87,0.82-53.8-0.1c-3.13-0.16-6.33,0.27-9.35-0.99c-1.51-6.08-1.12-12.06,0.99-17.94c0.37-0.05,0.73-0.11,1.1-0.16
			c13.79,2.18,27.65,4.16,41.64,3.08c42.07-3.22,81.96-13.32,116.4-39.1c24.47-18.32,39.16-42.97,45.07-72.9
			c2.8,0.06,3.59,2.65,5.06,4.24c4.46,4.82,9.26,9.12,15.37,11.75C483.21,440.19,461.51,473.84,429.88,501.15z"/>
		<path fill="#5293E4" d="M494.56,399.92c-9.93-1.34-14.37-9.7-20.43-16c-10.94-15.41-16.73-32.36-15.18-51.44
			c0.23-2.8,0.81-5.57,1.22-8.36c3.74,3.94,7.05,8.22,11.91,11.09c11,6.5,26.24,5.15,36.41-4.33c1.88-1.75,1.22-4.01,1.57-6.07
			c2.14,12.86,1.34,25.77,0.35,38.63c-0.57,7.39-2.07,14.71-3.24,22.05C505.93,393.29,502.44,398.32,494.56,399.92z"/>
		<path fill="#F9DC9F" d="M389.89,448.85c-9.84,6.21-20.98,9.05-31.95,12.32c-16.78,5.01-34.04,7.69-51.43,8.47
			c-10.52,0.47-21.13-1.57-31.61-3.32c0,0,0.04-0.34,0.04-0.34c-3.92-5.49-6.74-11.34-5.88-18.36c2.38-1.21,4.54,0.11,6.76,0.62
			c25.12,5.77,49.86,5.5,74.02-4.49c3.26-1.35,6.33-3.01,9.07-5.21c2.7-2.17,4.31-4.89,2.15-8.24c-2.09-3.23-5.19-3.19-8.42-1.83
			c-1.23,0.52-2.34,1.27-3.52,1.9c-10.62,5.73-22.08,8.25-34.02,9.01c-13.39,0.85-26.63,0.24-39.51-3.93
			c-3.77-1.22-7.78-2.09-10.42-5.52c-2.71-6.03-1.82-12.37-1.34-18.59c0.44-5.76,1.1-11.53,2.23-17.22c0.56-2.8,0.5-5.6-0.42-8.33
			c-0.15-0.53-0.17-1.07-0.07-1.6c1.28-2.07,3.62-2.85,5.38-4.36c7.57-6.52,9.32-14.92,6.86-24.03
			c-2.35-8.66-8.77-13.36-17.54-15.09c-2.91-0.58-5.98,1.52-8.73-0.66c-2.41-6.1-0.33-12.21,0.52-18.12
			c1.75-12.17,6.67-23.21,14.63-32.72c1.85-2.21,3.49-5.02,7.1-4.69c1.83,0.79,2.58,2.52,3.44,4.12c1.98,3.69,4.47,7.02,7.14,10.22
			c1.04,1.25,2.1,2.94,3.98,2.56c2.01-0.4,1.95-2.45,2.3-4.03c0.56-2.48,1.11-5.12,3.94-5.86c3.14-0.82,4.96,1.56,6.53,3.66
			c2.75,3.67,6.29,6.39,9.99,8.95c2.65,1.83,4.29,1.47,4.53-2.08c0.19-2.66,0.72-5.29,1.43-7.85c2.17-7.8,6.37-13.8,14.48-16.48
			c23-7.62,43.97-3.89,61.75,12.51c24.4,22.52,26.8,56.81,6.26,82.92c-5.94,7.55-7.96,15.31-5.68,24.63
			c3.55,14.49,3.09,29.03-0.42,43.51C392.81,444.09,392,446.77,389.89,448.85z"/>
		<path fill="#BE5543" d="M389.89,448.85c5.76-17.46,6.74-35.09,2.2-53.01c-2.11-8.3,0.22-15.6,5.57-22.28
			c24.24-30.28,16.89-71.45-16.3-90.51c-15.38-8.83-31.79-10.03-48.57-4.28c-10.13,3.47-15.32,11.5-15.67,23.53
			c-0.05,1.73,0.74,3.81-1.48,4.85c-2.07,0.97-3.44-0.63-4.91-1.6c-4.47-2.95-8.42-6.48-11.7-10.75c-1.07-1.4-2.16-3.26-4.4-2.55
			c-1.86,0.59-2.06,2.48-2.47,4.06c-0.67,2.63,0.28,6.47-3.08,7.24c-3.41,0.78-4.8-3.02-6.7-5.13c-3.58-3.97-6.16-8.66-8.69-13.34
			c-1.06-0.94-2.41-1.69-2.25-3.43c0.28-7.43,3.58-13.63,8.05-19.31c3.67-4.67,7.42-9.28,10.38-14.46c2.91-5.1,2.89-5.21-2.17-7.96
			c1.43-0.32,2.87-0.64,4.31-0.96c20.16-0.16,40.27,0.3,60.28,3.08c26.48,3.69,52.18,10.17,76.78,20.77
			c5.27,2.27,9.47,5.7,11.71,11.01c7.17,16.99,11.9,34.56,12.26,53.13c0.57,4.33-0.04,8.59-1,12.78
			c-3.94,17.19-11.72,32.45-23.26,45.79c-11.25,13-18.7,28.16-25.54,43.77c-2.96,6.75-5.68,13.91-11.82,18.77
			C391.12,448.71,390.67,449.09,389.89,448.85z"/>
		<path fill="#4374D2" d="M391.43,448.05c6.04-9.18,10.79-18.99,15.08-29.1c5.48-12.92,13.08-24.53,22.15-35.26
			c13.87-16.4,21.86-35.43,24.39-56.75c1.76,8.75,0.68,17.52-0.2,26.22c-1.79,17.75-5.63,35.06-13.64,51.14
			c-9.87,19.84-26.14,33.13-45.38,43.2C393.12,447.87,392.23,447.88,391.43,448.05z"/>
		<path fill="#B23C37" d="M287.7,239.91c6.92,0.41,7.56,1.62,3.86,7.77c-3.32,5.51-7.11,10.68-11.28,15.59
			c-4.59,5.4-6.89,11.84-8.13,18.72c-0.34,0-0.74,0.06-0.98-0.13c-11.62-9.03-23.74-5.2-34.95-0.04
			c-22.32,10.28-33.76,28.73-34.62,53.04c-0.45,12.72,3.56,24.84,11.78,34.83c7.67,9.33,10.54,19.06,7.28,31.03
			c-3.66,13.43-2.48,27.04,0.94,40.47c0.63,2.46,2.22,5,0.39,7.64c-0.34,0-0.67,0-1.01,0c-5.56-5.29-8.9-12.05-11.74-18.95
			c-6.75-16.43-15.08-31.81-26.68-45.42c-9.72-11.4-16.57-24.48-20.93-38.86c-2.63-8.69-3.43-17.54-2.78-26.56
			c0.92-15.75,5.36-30.62,11.45-45.04c2.16-5.12,6.09-8.65,11.19-10.82c25.77-11,52.6-17.96,80.41-21.27
			C270.47,240.89,279.03,239.75,287.7,239.91z"/>
		<path fill="#F9CD7A" d="M221.99,448.83c-1.07-7.2-3.4-14.1-4.25-21.4c-1.24-10.62,0.02-20.89,2.4-31.09
			c1.88-8.08,0.33-15.22-4.71-21.53c-6.63-8.31-11.46-17.35-13.87-27.8c-7.49-32.43,16.66-66.75,49.77-71.15
			c8.24-1.1,15.14-0.22,20.82,6.14c0.52,1.03,1.03,2.06,1.55,3.09c-6.14,3.05-9.19,8.86-12.39,14.37
			c-7.28,12.53-9.36,26.35-9.31,40.61c-0.17,0.79-0.63,1.38-1.26,1.86c-8.68,5.19-13.29,12.43-12.53,22.95
			c0.84,11.65,10.75,20.61,22.37,19.74c1.75-0.13,3.58-1.09,5.25,0.31c4.15,2.36,2.2,6.29,1.75,9.23
			c-1.38,8.98-2.65,17.91-2.69,27.02c-0.01,3.03,0.82,5.87,1.05,8.83c-2.19,0.82-3.76-0.69-5.5-1.49c-4.1-1.86-7.63-1.33-9.29,1.42
			c-1.78,2.96-0.62,6.68,3.07,9.33c3.37,2.42,7.14,4.08,10.95,5.69c1.49,0.63,3.81,0.46,3.79,3.05c1.99,5.99,3.99,11.98,5.98,17.97
			c-16.74-2.77-32.95-7.36-48.53-14.13C224.73,451.1,223.15,450.3,221.99,448.83z"/>
		<path fill="#4374D2" d="M158.85,319.05c0.91,25.95,10.49,48.36,27.41,67.9c6.88,7.94,12.53,16.81,16.9,26.39
			c5.5,12.06,10.79,24.21,17.83,35.49c-24.49-10.92-43.09-27.82-52.88-53.23c-9.22-23.91-11.7-48.84-10.05-74.27
			C158.1,320.56,158.57,319.81,158.85,319.05z"/>
		<path fill="#FAB262" d="M268.96,448c-5.25-2.73-11.05-4.34-15.9-7.93c-4.08-3.02-5.39-7.48-3.03-11.18
			c2.09-3.27,6.77-3.85,11.05-1.42c1.59,0.9,3.23,1.69,4.85,2.53c10.41,5.25,21.49,7.57,33.09,8.08
			c14.86,0.65,29.43-0.34,43.37-6.05c3.09-1.26,6.01-2.78,8.85-4.56c4.45-2.79,8.88-1.93,11.35,1.94c2.35,3.67,1.29,7.55-3.18,10.59
			c-10.11,6.87-21.57,10.27-33.49,11.92c-18.55,2.57-36.98,2.21-55-3.73C270.33,447.98,269.62,448.06,268.96,448z"/>
		<path fill="#DFF8FD" d="M346.91,340.88c10.51-4.66,22.32,2.26,26.57,11.15c4.82,10.1,1.99,23.07-6.94,29.57
			c-1.73,1.26-3.73,2.14-5.6,3.2c-1.03-1.07-1.11-2.32-0.69-3.66c0.58-1.4,1.75-2.36,2.61-3.55c5.33-7.35,1.73-16.43-7.17-18.12
			c-1.76-0.33-3.63-0.14-5.28-1.05C344.19,352.74,343.2,347.74,346.91,340.88z"/>
		<path fill="#DFF8FD" d="M250.99,340.98c0.33-0.31,0.67-0.62,1-0.93c14.95-1.31,24,3.93,27.4,15.89
			c3.34,11.74-2.53,24.1-13.36,28.13c-1.14-0.37-1.61-1.2-1.64-2.35c0.25-1.76,1.59-2.85,2.61-4.14c5.52-6.96,2.12-16.23-6.6-18.04
			c-1.93-0.4-4.01-0.07-5.78-1.24C249.4,353.37,248.32,347.57,250.99,340.98z"/>
		<path fill="#B8E8FC" d="M360.97,381.27c-0.01,1.18-0.02,2.35-0.03,3.53c-11.88,3.68-23.73-2.46-27.68-14.35
			c-4.12-12.38,1.86-25.32,13.66-29.57c-1.42,6.32-1.22,12.26,4.03,17.01c-0.06,0.78-0.46,1.36-1.04,1.84
			c-8.16,4.11-8.94,11.63-5.61,16.91c2.96,4.7,8.37,6.09,15.49,4.03C360.29,380.65,360.69,380.85,360.97,381.27z"/>
		<path fill="#B8E8FC" d="M250.99,340.98c0.52,0.47,0.85,1.01,0.58,1.74c-2.18,5.8,0.37,10.53,3.4,15.16
			c-0.06,0.78-0.45,1.38-1.01,1.9c-3.02,2.12-5.84,4.39-6.57,8.33c-1.41,7.62,3.91,13.8,11.74,13.62c1.5-0.03,2.95-0.41,4.45-0.4
			c0.49,0.06,0.93,0.26,1.31,0.57c0.38,0.73,0.76,1.45,1.14,2.18c-0.06,0.28-0.12,0.57-0.2,0.84c-12.7,2.58-21.8-1.34-26.76-11.54
			c-5.04-10.34-2.37-22.23,6.69-29.69C247.3,342.42,248.9,341.22,250.99,340.98z"/>
		<path fill="#FAB362" d="M327.97,399.94c0.04,4.27-3.32,7.99-7.17,7.97c-4.47-0.03-7.86-3.43-7.84-7.88
			c0.01-4.07,3.95-7.82,8.09-7.7C324.93,392.44,327.93,395.74,327.97,399.94z"/>
		<path fill="#FAB362" d="M299.79,400.39c-0.02,3.34-4.62,7.65-8.03,7.52c-3.48-0.12-7.71-4.45-7.71-7.89
			c-0.01-3.55,4.12-7.62,7.8-7.69C295.76,392.25,299.81,396.37,299.79,400.39z"/>
		<path fill="#3A57C8" d="M349.59,358.8c0.45-0.31,0.9-0.61,1.35-0.92c2.42,0.34,4.85-0.06,7.3,0.74
			c8.06,2.63,12.66,14.88,2.72,22.64c-0.28-0.01-0.56,0-0.84,0.05c-7.52-3.25-9.31-9.99-10.3-17.13
			C349.57,362.43,349.88,360.59,349.59,358.8z"/>
		<path fill="#3957C8" d="M253.85,358.94c0.37-0.35,0.75-0.71,1.12-1.06c1.32,0.03,2.65,0.04,3.97,0.1
			c5.34,0.24,9.13,2.9,11.15,7.75c2.02,4.86,1.15,9.42-2.41,13.37c-0.88,0.98-1.86,1.86-2.79,2.79c0,0-0.47,0.02-0.47,0.02
			l-0.46-0.06c-5.9-4.37-9.43-10.01-9.3-17.56C254.69,362.45,254.14,360.72,253.85,358.94z"/>
		<path fill="#4347B0" d="M349.59,358.8c0.77,0.23,2.04,0.37,1.87,1.26c-1.77,9.02,2.59,15.48,8.66,21.26
			c-6.54,3.73-14.4,1.4-17.59-5.22C339.12,369.01,341.93,362.1,349.59,358.8z"/>
		<path fill="#4347B0" d="M253.85,358.94c1.63,0.21,2.25,1.25,2.08,2.75c-0.86,7.47,2.02,13.39,7.4,18.35
			c0.41,0.38,0.43,1.2,0.63,1.81c-7.32,2.92-14.11,0.45-17.11-6.22C243.84,368.98,246.69,362.19,253.85,358.94z"/>
	</g>
</g>
</svg>
