<?xml version="1.0" encoding="utf-8"?>
<!-- Generator: Adobe Illustrator 24.0.1, SVG Export Plug-In . SVG Version: 6.00 Build 0)  -->
<svg version="1.1" id="Layer_1" xmlns="http://www.w3.org/2000/svg" xmlns:xlink="http://www.w3.org/1999/xlink" x="0px" y="0px"
	 viewBox="0 0 100 40" style="enable-background:new 0 0 100 40;" xml:space="preserve">
<style type="text/css">
	.st0{display:none;fill:#FFFFFF;}
	.st1{fill:#FFFFFF;}
</style>
<g>
	<g>
		<path class="st0" d="M50,0.02c8.71,0,17.43,0.01,26.14-0.02C76.86,0,77,0.14,77,0.85c-0.03,12.79-0.03,25.58,0,38.37
			c0,0.71-0.14,0.85-0.86,0.85c-17.43-0.03-34.86-0.03-52.29,0c-0.71,0-0.86-0.14-0.86-0.85c0.03-12.79,0.03-25.58,0-38.37
			C23,0.14,23.14,0,23.86,0C32.57,0.03,41.29,0.02,50,0.02z"/>
		<path class="st1" d="M66.03,14.44c-4.69-0.42-8.89,1.75-10.47,5.62c-3.05,7.48,2.21,14.25,9.34,14.02c5.66,0,9.93-3.83,10.2-9.15
			C75.39,19.27,71.64,14.94,66.03,14.44z M64.92,28.71c-5.8,0-5.79-9,0-9C70.72,19.71,70.71,28.71,64.92,28.71z"/>
		<path class="st1" d="M30.69,19.51c0,3.85,0,7.7,0,11.55c0,1.9-0.41,2.3-2.3,2.3c-3.51,0.01-3.51,0.01-3.51-3.46
			c0-5.52,0-11.04,0-16.55c0-2.11,0.41-4.1,1.87-5.74c0.37-0.42,0.78-0.79,1.28-1.06c1.73-0.93,2.66-0.41,2.66,1.52
			C30.7,11.89,30.69,15.7,30.69,19.51z"/>
		<path class="st1" d="M51.47,19.57c0,3.81,0,7.62,0,11.43c0,1.98-0.39,2.36-2.37,2.36c-3.45,0-3.45,0-3.45-3.4
			c0-5.56,0-11.11,0-16.67c0-2.11,0.44-4.09,1.91-5.72c0.35-0.38,0.73-0.73,1.19-0.98c1.77-0.99,2.71-0.46,2.71,1.55
			C51.47,11.95,51.47,15.76,51.47,19.57z"/>
		<path class="st1" d="M41.2,24.17c0,2.3,0.01,4.6,0,6.9c-0.01,1.74-0.44,2.16-2.19,2.18c-3.62,0.03-3.62,0.03-3.62-3.58
			c0-4.16-0.01-8.32,0-12.49c0-1.79,0.39-2.17,2.16-2.17c0.48,0,0.95,0,1.43,0c1.79,0,2.21,0.43,2.22,2.26
			C41.21,19.58,41.2,21.87,41.2,24.17z"/>
		<path class="st1" d="M38.32,5.92c1.87,0.01,3.19,1.28,3.19,3.06c0,1.81-1.4,3.18-3.25,3.18c-1.87,0-3.28-1.38-3.28-3.17
			C35,7.17,36.38,5.9,38.32,5.92z"/>
		<path class="st0" d="M69.22,24.28c-0.01,2.82-1.68,4.6-4.31,4.6c-2.66,0-4.34-1.83-4.32-4.72c0.02-2.75,1.8-4.61,4.38-4.57
			C67.54,19.62,69.23,21.49,69.22,24.28z"/>
	</g>
</g>
<path d="M64.96,19.59"/>
</svg>
