<svg width="1072" height="1024" viewBox="0 0 1072 1024" fill="none" xmlns="http://www.w3.org/2000/svg">
<path d="M94.0175 -74.2179C49.8127 -74.4994 -11.1533 -67.2781 -71.6822 77.1901C-132.211 221.658 -159.542 507.311 -164.922 696.009C-170.301 884.707 -171.471 880.161 -175.839 1002.98C-117.354 1083.61 -51.7715 1228.37 130.444 1246.95C230.012 1290.62 361.502 1312.37 464.35 1303.78C567.199 1295.19 680.945 1271.31 720.05 1216.59C759.156 1161.88 746.425 1106.08 742.858 1064.59C739.292 1023.1 705.337 980.875 685.813 961.037C666.289 941.198 638.389 913.993 620.798 880.617C603.207 847.242 595.929 807.699 595.502 773.863C595.076 740.027 601.503 711.903 601.88 678.271C602.258 644.638 596.585 605.501 583.167 572.657C569.75 539.813 548.588 513.267 524.677 489.917C500.766 466.567 474.106 446.416 441.285 430.731C408.463 415.045 369.482 403.827 341.037 387.497C312.591 371.166 294.684 349.723 276.934 326.346C259.184 302.969 241.594 277.661 235.283 248.787C228.973 219.913 233.945 187.478 238.016 152.196C242.087 116.915 245.256 78.7909 237.621 43.2221C229.986 7.65335 211.547 -25.3563 188.605 -45.7546C165.664 -66.153 138.222 -73.9364 94.0175 -74.2179Z" fill="#00D8FF"/>
</svg>
